<svg width="24" height="24" viewBox="0 0 24 24" fill="none" xmlns="http://www.w3.org/2000/svg">
<path d="M16.6667 15.1667H15.6133L15.24 14.8067C16.5919 13.2388 17.3349 11.237 17.3333 9.16667C17.3333 7.45257 16.825 5.77696 15.8727 4.35173C14.9204 2.9265 13.5669 1.81567 11.9833 1.15971C10.3996 0.503755 8.65706 0.332126 6.97589 0.666531C5.29472 1.00094 3.75047 1.82636 2.53841 3.03841C1.32636 4.25047 0.500937 5.79472 0.166531 7.47589C-0.167874 9.15706 0.00375513 10.8996 0.659715 12.4833C1.31567 14.0669 2.4265 15.4204 3.85173 16.3727C5.27696 17.325 6.95257 17.8333 8.66667 17.8333C10.8133 17.8333 12.7867 17.0467 14.3067 15.74L14.6667 16.1133V17.1667L21.3333 23.82L23.32 21.8333L16.6667 15.1667ZM8.66667 15.1667C5.34667 15.1667 2.66667 12.4867 2.66667 9.16667C2.66667 5.84667 5.34667 3.16667 8.66667 3.16667C11.9867 3.16667 14.6667 5.84667 14.6667 9.16667C14.6667 12.4867 11.9867 15.1667 8.66667 15.1667Z" fill="white"/>
</svg>
