<svg width="20" height="24" viewBox="0 0 20 24" fill="none" xmlns="http://www.w3.org/2000/svg">
<path d="M7.83333 23.9173V21.7507H2.41667C1.82083 21.7507 1.31076 21.5385 0.886458 21.1142C0.462153 20.6899 0.25 20.1798 0.25 19.584V4.41732C0.25 3.82148 0.462153 3.31142 0.886458 2.88711C1.31076 2.4628 1.82083 2.25065 2.41667 2.25065H7.83333V0.0839844H10V23.9173H7.83333ZM2.41667 18.5007H7.83333V12.0007L2.41667 18.5007ZM12.1667 21.7507V12.0007L17.5833 18.5007V4.41732H12.1667V2.25065H17.5833C18.1792 2.25065 18.6892 2.4628 19.1135 2.88711C19.5378 3.31142 19.75 3.82148 19.75 4.41732V19.584C19.75 20.1798 19.5378 20.6899 19.1135 21.1142C18.6892 21.5385 18.1792 21.7507 17.5833 21.7507H12.1667Z" fill="white"/>
</svg>
