<svg width="23" height="21" viewBox="0 0 23 21" fill="none" xmlns="http://www.w3.org/2000/svg">
<path d="M19.41 6.96602H10.17C9.70333 6.96602 9.26 7.09223 8.84 7.34466C8.74667 6.71359 8.455 6.19822 7.965 5.79854C7.475 5.39887 6.90333 5.19903 6.25 5.19903C5.73667 5.19903 5.27 5.30421 4.85 5.51456V4.56796C4.85 4.39968 4.79167 4.26294 4.675 4.15777C4.55833 4.05259 4.40667 4 4.22 4H1.63C1.44333 4 1.29167 4.05259 1.175 4.15777C1.05833 4.26294 1 4.39968 1 4.56796V16.432C1 16.6003 1.05833 16.7371 1.175 16.8422C1.29167 16.9474 1.44333 17 1.63 17H4.22C4.40667 17 4.55833 16.9474 4.675 16.8422C4.79167 16.7371 4.85 16.6003 4.85 16.432V14.6019H18.15V16.432C18.15 16.6003 18.2083 16.7371 18.325 16.8422C18.4417 16.9474 18.5933 17 18.78 17H21.37C21.5567 17 21.7083 16.9474 21.825 16.8422C21.9417 16.7371 22 16.6003 22 16.432V9.30097C22 8.6699 21.7433 8.12298 21.23 7.66019C20.7167 7.19741 20.11 6.96602 19.41 6.96602ZM6.25 6.27184C6.62333 6.27184 6.93833 6.39806 7.195 6.65049C7.45167 6.90291 7.58 7.19741 7.58 7.53398C7.58 7.87055 7.45167 8.15453 7.195 8.38592C6.93833 8.61731 6.62333 8.73301 6.25 8.73301C5.87667 8.73301 5.55 8.61731 5.27 8.38592C4.99 8.15453 4.85 7.87055 4.85 7.53398C4.85 7.19741 4.99 6.90291 5.27 6.65049C5.55 6.39806 5.87667 6.27184 6.25 6.27184ZM4.85 9.49029C5.27 9.74272 5.725 9.86893 6.215 9.86893C6.705 9.86893 7.16 9.74272 7.58 9.49029V11.1311H4.85V9.49029ZM20.74 15.8641H19.34V14.034C19.34 13.9078 19.2817 13.7921 19.165 13.6869C19.0483 13.5817 18.92 13.5291 18.78 13.5291H4.22C4.08 13.5291 3.95167 13.5817 3.835 13.6869C3.71833 13.7921 3.66 13.9078 3.66 14.034V15.8641H2.26V5.13592H3.66V11.699C3.66 11.8252 3.71833 11.9515 3.835 12.0777C3.95167 12.2039 4.08 12.267 4.22 12.267H20.74V15.8641ZM20.74 11.1311H8.84V9.30097C8.84 8.9644 8.96833 8.68042 9.225 8.44903C9.48167 8.21764 9.79667 8.10194 10.17 8.10194H19.41C19.7833 8.10194 20.0983 8.21764 20.355 8.44903C20.6117 8.68042 20.74 8.9644 20.74 9.30097V11.1311Z" fill="#565353"/>
</svg>
