<svg width="15" height="15" viewBox="0 0 15 15" fill="none" xmlns="http://www.w3.org/2000/svg">
<path d="M13.15 4.88664H6.55C6.21667 4.88664 5.9 4.97998 5.6 5.16664C5.53333 4.69998 5.325 4.31886 4.975 4.02331C4.625 3.72775 4.21667 3.57998 3.75 3.57998C3.38333 3.57998 3.05 3.65775 2.75 3.81331V3.11331C2.75 2.98886 2.70833 2.88775 2.625 2.80998C2.54167 2.7322 2.43333 2.69331 2.3 2.69331H0.45C0.316667 2.69331 0.208333 2.7322 0.125 2.80998C0.0416667 2.88775 0 2.98886 0 3.11331V11.8866C0 12.0111 0.0416667 12.1122 0.125 12.19C0.208333 12.2678 0.316667 12.3066 0.45 12.3066H2.3C2.43333 12.3066 2.54167 12.2678 2.625 12.19C2.70833 12.1122 2.75 12.0111 2.75 11.8866V10.5333H12.25V11.8866C12.25 12.0111 12.2917 12.1122 12.375 12.19C12.4583 12.2678 12.5667 12.3066 12.7 12.3066H14.55C14.6833 12.3066 14.7917 12.2678 14.875 12.19C14.9583 12.1122 15 12.0111 15 11.8866V6.61331C15 6.14664 14.8167 5.7422 14.45 5.39997C14.0833 5.05775 13.65 4.88664 13.15 4.88664ZM3.75 4.37331C4.01667 4.37331 4.24167 4.46664 4.425 4.65331C4.60833 4.83998 4.7 5.05775 4.7 5.30664C4.7 5.55553 4.60833 5.76553 4.425 5.93664C4.24167 6.10775 4.01667 6.19331 3.75 6.19331C3.48333 6.19331 3.25 6.10775 3.05 5.93664C2.85 5.76553 2.75 5.55553 2.75 5.30664C2.75 5.05775 2.85 4.83998 3.05 4.65331C3.25 4.46664 3.48333 4.37331 3.75 4.37331ZM2.75 6.75331C3.05 6.93997 3.375 7.03331 3.725 7.03331C4.075 7.03331 4.4 6.93997 4.7 6.75331V7.96664H2.75V6.75331ZM14.1 11.4666H13.1V10.1133C13.1 10.02 13.0583 9.93442 12.975 9.85664C12.8917 9.77886 12.8 9.73997 12.7 9.73997H2.3C2.2 9.73997 2.10833 9.77886 2.025 9.85664C1.94167 9.93442 1.9 10.02 1.9 10.1133V11.4666H0.9V3.53331H1.9V8.38664C1.9 8.47997 1.94167 8.57331 2.025 8.66664C2.10833 8.75997 2.2 8.80664 2.3 8.80664H14.1V11.4666ZM14.1 7.96664H5.6V6.61331C5.6 6.36442 5.69167 6.15442 5.875 5.98331C6.05833 5.8122 6.28333 5.72664 6.55 5.72664H13.15C13.4167 5.72664 13.6417 5.8122 13.825 5.98331C14.0083 6.15442 14.1 6.36442 14.1 6.61331V7.96664Z" fill="#565353"/>
</svg>
