<svg width="21" height="19" viewBox="0 0 21 19" fill="none" xmlns="http://www.w3.org/2000/svg">
<path d="M3.4393 9.96741L1.94447 11.1093L1.01437 9.86916L3.56084 7.91686L3.6 7.88684V7.8375V5.225H5.15V6.50313V6.70513L5.31063 6.58265L10.5 2.62579L19.9849 9.86885L19.0556 11.0886L17.56 9.96688L17.4 9.84688V10.0469V18.15H3.6V10.0469V9.84465L3.4393 9.96741ZM5.15 16.5V16.6H5.25H9.625H9.725V16.5V13.1H11.275V16.5V16.6H11.375H15.75H15.85V16.5V8.7125V8.663L15.8106 8.63298L10.5606 4.62985L10.5 4.58362L10.4394 4.62985L5.18937 8.63298L5.15 8.663V8.7125V16.5ZM3.60168 4.15C3.62396 3.49051 3.86836 2.92931 4.33634 2.46134C4.82779 1.96989 5.42205 1.725 6.125 1.725C6.3981 1.725 6.63176 1.63154 6.81915 1.44415C6.98324 1.28005 7.07531 1.08047 7.09567 0.85H8.64832C8.62604 1.50949 8.38164 2.07069 7.91366 2.53866C7.42221 3.03011 6.82795 3.275 6.125 3.275C5.8519 3.275 5.61824 3.36846 5.43085 3.55585C5.26676 3.71995 5.17469 3.91953 5.15433 4.15H3.60168Z" fill="#565353" stroke="white" stroke-width="0.2"/>
</svg>
