<svg width="17" height="17" viewBox="0 0 17 17" fill="none" xmlns="http://www.w3.org/2000/svg">
<path d="M6.19875 9.35346V8.1325H8.22375C8.65115 8.1325 9.00239 8.02543 9.26614 7.80046C9.52054 7.58347 9.69486 7.32305 9.78578 7.01998L9.8244 6.89125H9.69H5.0725V6.0925H9.66875H9.8052L9.76411 5.96239C9.67273 5.67301 9.50112 5.42983 9.25251 5.23395C8.99726 5.03285 8.67282 4.93625 8.2875 4.93625H5.0725V3.925H11.9275V4.72375H10.54H10.3244L10.4637 4.88834C10.6157 5.06804 10.7429 5.25043 10.8457 5.43544C10.947 5.61773 11.0177 5.80985 11.0582 6.01211L11.0743 6.0925H11.1562H11.9275V6.89125H11.1775H11.094L11.0791 6.97336C10.97 7.57365 10.6735 8.10015 10.185 8.55426C9.70279 9.00255 9.09411 9.22875 8.35125 9.22875H8.13875H8.06667L8.04388 9.29713L8.02263 9.36088L8.00373 9.4176L8.04474 9.4611L11.4521 13.075H9.62759L6.19875 9.35346ZM8.5 16.9C7.33718 16.9 6.24573 16.6794 5.22462 16.2388C4.20157 15.7974 3.31266 15.1987 2.55696 14.443C1.80126 13.6873 1.20264 12.7984 0.761192 11.7754C0.320577 10.7543 0.1 9.66282 0.1 8.5C0.1 7.33718 0.320577 6.24573 0.761192 5.22462C1.20264 4.20157 1.80126 3.31266 2.55696 2.55696C3.31266 1.80126 4.20157 1.20264 5.22462 0.761192C6.24573 0.320577 7.33718 0.1 8.5 0.1C9.66282 0.1 10.7543 0.320577 11.7754 0.761192C12.7984 1.20264 13.6873 1.80126 14.443 2.55696C15.1987 3.31266 15.7974 4.20157 16.2388 5.22462C16.6794 6.24573 16.9 7.33718 16.9 8.5C16.9 9.66282 16.6794 10.7543 16.2388 11.7754C15.7974 12.7984 15.1987 13.6873 14.443 14.443C13.6873 15.1987 12.7984 15.7974 11.7754 16.2388C10.7543 16.6794 9.66282 16.9 8.5 16.9ZM8.5 15.4C10.4243 15.4 12.0578 14.7311 13.3945 13.3945C14.7311 12.0578 15.4 10.4243 15.4 8.5C15.4 6.57571 14.7311 4.94219 13.3945 3.60554C12.0578 2.26889 10.4243 1.6 8.5 1.6C6.57571 1.6 4.94219 2.26889 3.60554 3.60554C2.26889 4.94219 1.6 6.57571 1.6 8.5C1.6 10.4243 2.26889 12.0578 3.60554 13.3945C4.94219 14.7311 6.57571 15.4 8.5 15.4Z" fill="#565353" stroke="white" stroke-width="0.2"/>
</svg>
