<svg width="18" height="20" viewBox="0 0 18 20" fill="none" xmlns="http://www.w3.org/2000/svg">
<path d="M5.25 2.5H7.75V0H5.25V2.5ZM10.25 2.5V0H12.75V2.5H10.25ZM5.25 12.5V10H7.75V12.5H5.25ZM15.25 7.5V5H17.75V7.5H15.25ZM15.25 12.5V10H17.75V12.5H15.25ZM10.25 12.5V10H12.75V12.5H10.25ZM15.25 2.5V0H17.75V2.5H15.25ZM7.75 5V2.5H10.25V5H7.75ZM0.25 20V0H2.75V2.5H5.25V5H2.75V7.5H5.25V10H2.75V20H0.25ZM12.75 10V7.5H15.25V10H12.75ZM7.75 10V7.5H10.25V10H7.75ZM5.25 7.5V5H7.75V7.5H5.25ZM10.25 7.5V5H12.75V7.5H10.25ZM12.75 5V2.5H15.25V5H12.75Z" fill="white"/>
</svg>
