<svg width="14" height="14" viewBox="0 0 14 14" fill="none" xmlns="http://www.w3.org/2000/svg">
<g clip-path="url(#clip0_570_10204)">
<path d="M11.2975 1.77333C10.7064 1.21333 10.0453 0.777778 9.31417 0.466666C8.58306 0.155556 7.81306 0 7.00417 0C6.19528 0 5.4175 0.155556 4.67083 0.466666C3.92417 0.777778 3.27083 1.21333 2.71083 1.77333C2.15083 2.33333 1.71528 2.98667 1.40417 3.73333C1.09306 4.48 0.9375 5.25778 0.9375 6.06667C0.9375 6.87556 1.09306 7.64556 1.40417 8.37667C1.71528 9.10778 2.15083 9.76889 2.71083 10.36L5.93083 13.58C6.21083 13.86 6.56083 14 6.98083 14C7.40083 14 7.76639 13.86 8.0775 13.58L11.2975 10.36C11.8575 9.76889 12.2931 9.10778 12.6042 8.37667C12.9153 7.64556 13.0708 6.87556 13.0708 6.06667C13.0708 5.25778 12.9153 4.48 12.6042 3.73333C12.2931 2.98667 11.8575 2.33333 11.2975 1.77333ZM10.6908 9.75333L7.47083 12.9733C7.34639 13.0978 7.19083 13.16 7.00417 13.16C6.8175 13.16 6.64639 13.0978 6.49083 12.9733L3.27083 9.75333C2.77306 9.25556 2.39972 8.68778 2.15083 8.05C1.90194 7.41222 1.7775 6.74333 1.7775 6.04333C1.7775 5.34333 1.90194 4.67444 2.15083 4.03667C2.39972 3.39889 2.77306 2.83889 3.27083 2.35667C3.76861 1.87444 4.33639 1.50111 4.97417 1.23667C5.61194 0.972222 6.28083 0.84 6.98083 0.84C7.68083 0.84 8.34972 0.972222 8.9875 1.23667C9.62528 1.50111 10.1931 1.86667 10.6908 2.33333C11.3753 3.01778 11.8342 3.81111 12.0675 4.71333C12.3008 5.61556 12.3008 6.51778 12.0675 7.42C11.8342 8.32222 11.3753 9.1 10.6908 9.75333ZM7.00417 3.87333C6.41306 3.87333 5.89972 4.09111 5.46417 4.52667C5.02861 4.96222 4.81083 5.47556 4.81083 6.06667C4.81083 6.65778 5.02861 7.16333 5.46417 7.58333C5.89972 8.00333 6.41306 8.21333 7.00417 8.21333C7.59528 8.21333 8.10083 8.00333 8.52083 7.58333C8.94083 7.16333 9.15083 6.65778 9.15083 6.06667C9.15083 5.47556 8.94083 4.96222 8.52083 4.52667C8.10083 4.09111 7.59528 3.87333 7.00417 3.87333ZM7.00417 7.42C6.63083 7.42 6.31194 7.28778 6.0475 7.02333C5.78306 6.75889 5.65083 6.44 5.65083 6.06667C5.65083 5.69333 5.78306 5.37444 6.0475 5.11C6.31194 4.84556 6.63083 4.71333 7.00417 4.71333C7.3775 4.71333 7.69639 4.84556 7.96083 5.11C8.22528 5.37444 8.3575 5.69333 8.3575 6.06667C8.3575 6.44 8.22528 6.75889 7.96083 7.02333C7.69639 7.28778 7.3775 7.42 7.00417 7.42Z" fill="#565353"/>
</g>
<defs>
<clipPath id="clip0_570_10204">
<rect width="14" height="14" fill="white" transform="matrix(1 0 0 -1 0 14)"/>
</clipPath>
</defs>
</svg>
