<svg width="23" height="23" viewBox="0 0 23 23" fill="none" xmlns="http://www.w3.org/2000/svg">
<mask id="mask0_570_10285" style="mask-type:alpha" maskUnits="userSpaceOnUse" x="2" y="2" width="19" height="19">
<rect x="2.1" y="2.1" width="18.8" height="18.8" fill="#D9D9D9" stroke="white" stroke-width="0.2"/>
</mask>
<g mask="url(#mask0_570_10285)">
<path d="M6.05841 17.0417V13.1833H10.6084V18.525H9.22508V14.6667V14.5667H9.12508H7.54175H7.44175V14.6667V18.525H2.89175V10.7598L8.33341 6.87289L13.7209 10.7211L12.7361 11.7059L8.39147 8.60816L8.33354 8.56685L8.27552 8.60805L4.31719 11.4185L4.27508 11.4484V11.5V17.0417V17.1417H4.37508H5.95841H6.05841V17.0417ZM11.4001 5.95833V6.87065L10.0167 5.86773V4.475H20.1084V12.1473C19.9287 11.9736 19.7375 11.8134 19.5348 11.6664C19.2825 11.4835 19.0125 11.3214 18.7251 11.1801V5.95833V5.85833H18.6251H11.5001H11.4001V5.95833ZM15.7542 18.625V18.725H15.8542H16.6459H16.7459V18.625V16.7458H18.6251H18.7251V16.6458V15.8542V15.7542H18.6251H16.7459V13.875V13.775H16.6459H15.8542H15.7542V13.875V15.7542H13.8751H13.7751V15.8542V16.6458V16.7458H13.8751H15.7542V18.625ZM16.9417 9.025H15.5584V7.64167H16.9417V9.025ZM16.2501 20.1083C15.1814 20.1083 14.2733 19.7329 13.5203 18.9798C12.7672 18.2268 12.3917 17.3187 12.3917 16.25C12.3917 15.1813 12.7672 14.2732 13.5203 13.5202C14.2733 12.7671 15.1814 12.3917 16.2501 12.3917C17.3188 12.3917 18.2268 12.7671 18.9799 13.5202C19.7329 14.2732 20.1084 15.1813 20.1084 16.25C20.1084 17.3187 19.7329 18.2268 18.9799 18.9798C18.2268 19.7329 17.3188 20.1083 16.2501 20.1083Z" fill="#565353" stroke="white" stroke-width="0.2"/>
</g>
</svg>
