<svg width="14" height="15" viewBox="0 0 14 15" fill="none" xmlns="http://www.w3.org/2000/svg">
<g clip-path="url(#clip0_570_10217)">
<path d="M11.1067 13.66H9.42667C9.33333 13.66 9.24 13.7067 9.14667 13.8C9.05333 13.8933 9.00667 13.9944 9.00667 14.1033C9.00667 14.2122 9.05333 14.3056 9.14667 14.3833C9.24 14.4611 9.33333 14.5 9.42667 14.5H11.1067C11.2311 14.5 11.3322 14.4611 11.41 14.3833C11.4878 14.3056 11.5267 14.2122 11.5267 14.1033C11.5267 13.9944 11.4878 13.8933 11.41 13.8C11.3322 13.7067 11.2311 13.66 11.1067 13.66ZM7.79333 13.66H6.16C6.03556 13.66 5.93444 13.7067 5.85667 13.8C5.77889 13.8933 5.74 13.9944 5.74 14.1033C5.74 14.2122 5.77889 14.3056 5.85667 14.3833C5.93444 14.4611 6.03556 14.5 6.16 14.5H7.79333C7.91778 14.5 8.01889 14.4611 8.09667 14.3833C8.17444 14.3056 8.21333 14.2122 8.21333 14.1033C8.21333 13.9944 8.17444 13.8933 8.09667 13.8C8.01889 13.7067 7.91778 13.66 7.79333 13.66ZM13.58 6.24C13.4867 6.24 13.3933 6.27889 13.3 6.35667C13.2067 6.43444 13.16 6.53556 13.16 6.66V8.29333C13.16 8.41778 13.2067 8.51889 13.3 8.59667C13.3933 8.67444 13.4944 8.71333 13.6033 8.71333C13.7122 8.71333 13.8056 8.67444 13.8833 8.59667C13.9611 8.51889 14 8.41778 14 8.29333V6.66C14 6.53556 13.9611 6.43444 13.8833 6.35667C13.8056 6.27889 13.7044 6.24 13.58 6.24ZM13.58 9.50667C13.4867 9.50667 13.3933 9.55333 13.3 9.64667C13.2067 9.74 13.16 9.83333 13.16 9.92667V11.56C13.16 11.6844 13.2067 11.7856 13.3 11.8633C13.3933 11.9411 13.4944 11.98 13.6033 11.98C13.7122 11.98 13.8056 11.9411 13.8833 11.8633C13.9611 11.7856 14 11.6844 14 11.56V9.92667C14 9.83333 13.9611 9.74 13.8833 9.64667C13.8056 9.55333 13.7044 9.50667 13.58 9.50667ZM4.52667 13.66H4.10667V13.2867C4.10667 13.1622 4.06778 13.0611 3.99 12.9833C3.91222 12.9056 3.81111 12.8667 3.68667 12.8667C3.56222 12.8667 3.46111 12.9056 3.38333 12.9833C3.30556 13.0611 3.26667 13.1622 3.26667 13.2867V14.08C3.26667 14.2044 3.30556 14.3056 3.38333 14.3833C3.46111 14.4611 3.56222 14.5 3.68667 14.5H4.52667C4.62 14.5 4.70556 14.4611 4.78333 14.3833C4.86111 14.3056 4.9 14.2122 4.9 14.1033C4.9 13.9944 4.86111 13.8933 4.78333 13.8C4.70556 13.7067 4.62 13.66 4.52667 13.66ZM13.58 3.76667H12.7867C12.6622 3.76667 12.5611 3.80556 12.4833 3.88333C12.4056 3.96111 12.3667 4.06222 12.3667 4.18667C12.3667 4.31111 12.4056 4.41222 12.4833 4.49C12.5611 4.56778 12.6622 4.60667 12.7867 4.60667H13.16V5.02667C13.16 5.12 13.2067 5.20556 13.3 5.28333C13.3933 5.36111 13.4944 5.4 13.6033 5.4C13.7122 5.4 13.8056 5.36111 13.8833 5.28333C13.9611 5.20556 14 5.12 14 5.02667V4.18667C14 4.06222 13.9611 3.96111 13.8833 3.88333C13.8056 3.80556 13.7044 3.76667 13.58 3.76667ZM13.58 12.8667C13.4867 12.8667 13.3933 12.9056 13.3 12.9833C13.2067 13.0611 13.16 13.1622 13.16 13.2867V13.66H12.7867C12.6622 13.66 12.5611 13.7067 12.4833 13.8C12.4056 13.8933 12.3667 13.9944 12.3667 14.1033C12.3667 14.2122 12.4056 14.3056 12.4833 14.3833C12.5611 14.4611 12.6622 14.5 12.7867 14.5H13.58C13.7044 14.5 13.8056 14.4611 13.8833 14.3833C13.9611 14.3056 14 14.2044 14 14.08V13.2867C14 13.1622 13.9611 13.0611 13.8833 12.9833C13.8056 12.9056 13.7044 12.8667 13.58 12.8667ZM11.1067 3.76667H10.6867V0.92C10.6867 0.795555 10.64 0.694445 10.5467 0.616667C10.4533 0.538889 10.36 0.5 10.2667 0.5H0.42C0.295556 0.5 0.194444 0.538889 0.116667 0.616667C0.0388889 0.694445 0 0.795555 0 0.92V10.7667C0 10.86 0.0388889 10.9533 0.116667 11.0467C0.194444 11.14 0.295556 11.1867 0.42 11.1867H3.26667V11.56C3.26667 11.6844 3.30556 11.7856 3.38333 11.8633C3.46111 11.9411 3.56222 11.98 3.68667 11.98C3.81111 11.98 3.91222 11.9411 3.99 11.8633C4.06778 11.7856 4.10667 11.6844 4.10667 11.56V4.60667H11.1067C11.2311 4.60667 11.3322 4.56778 11.41 4.49C11.4878 4.41222 11.5267 4.31111 11.5267 4.18667C11.5267 4.06222 11.4878 3.96111 11.41 3.88333C11.3322 3.80556 11.2311 3.76667 11.1067 3.76667ZM9.84667 3.76667H3.68667C3.56222 3.76667 3.46111 3.80556 3.38333 3.88333C3.30556 3.96111 3.26667 4.06222 3.26667 4.18667V10.3467H0.84V1.34H9.84667V3.76667Z" fill="#565353"/>
</g>
<defs>
<clipPath id="clip0_570_10217">
<rect width="14" height="14" fill="white" transform="matrix(1 0 0 -1 0 14.5)"/>
</clipPath>
</defs>
</svg>
