<svg width="14" height="15" viewBox="0 0 14 15" fill="none" xmlns="http://www.w3.org/2000/svg">
<g clip-path="url(#clip0_570_10213)">
<path d="M14 7.59253C14 7.2503 13.8833 6.96253 13.65 6.72919C13.4167 6.49586 13.1289 6.37919 12.7867 6.37919H2.19333V2.59919C2.19333 2.28808 2.30222 2.02364 2.52 1.80586C2.67556 1.6503 2.85444 1.55697 3.05667 1.52586C3.25889 1.49475 3.46889 1.5103 3.68667 1.57253C3.40667 2.00808 3.29778 2.4903 3.36 3.01919C3.42222 3.54808 3.64 3.99919 4.01333 4.37253L4.10667 4.51253C4.2 4.57475 4.30111 4.60586 4.41 4.60586C4.51889 4.60586 4.60444 4.57475 4.66667 4.51253L7.32667 1.85252C7.42 1.75919 7.46667 1.65808 7.46667 1.54919C7.46667 1.4403 7.42 1.33919 7.32667 1.24586L7.23333 1.15252C6.82889 0.74808 6.33889 0.530303 5.76333 0.499191C5.18778 0.468081 4.68222 0.623636 4.24667 0.965858C3.87333 0.74808 3.46889 0.662525 3.03333 0.709191C2.59778 0.755858 2.22444 0.934748 1.91333 1.24586C1.54 1.61919 1.35333 2.0703 1.35333 2.59919V6.37919H1.21333C0.871111 6.37919 0.583333 6.49586 0.35 6.72919C0.116667 6.96253 0 7.2503 0 7.59253C0 7.87253 0.0777778 8.11364 0.233333 8.31586C0.388889 8.51808 0.575556 8.66586 0.793333 8.75919V9.64586C0.793333 10.3925 0.995556 11.077 1.4 11.6992C1.80444 12.3214 2.31778 12.8036 2.94 13.1459L2.56667 13.8925C2.50444 14.017 2.49667 14.1259 2.54333 14.2192C2.59 14.3125 2.66 14.3903 2.75333 14.4525C2.84667 14.5147 2.94778 14.5225 3.05667 14.4759C3.16556 14.4292 3.25111 14.3592 3.31333 14.2659L3.73333 13.4259C4.04444 13.4881 4.37111 13.5192 4.71333 13.5192H9.28667C9.62889 13.5192 9.95556 13.4881 10.2667 13.4259L10.6867 14.2659C10.7489 14.3592 10.8344 14.4292 10.9433 14.4759C11.0522 14.5225 11.1533 14.5147 11.2467 14.4525C11.34 14.3903 11.41 14.3125 11.4567 14.2192C11.5033 14.1259 11.4956 14.017 11.4333 13.8925L11.06 13.1459C11.6822 12.8036 12.1956 12.3214 12.6 11.6992C13.0044 11.077 13.2067 10.3925 13.2067 9.64586V8.75919C13.4244 8.66586 13.6111 8.51808 13.7667 8.31586C13.9222 8.11364 14 7.87253 14 7.59253ZM6.44 1.57253L4.43333 3.62586C4.21556 3.31475 4.12222 2.98808 4.15333 2.64586C4.18444 2.30364 4.32444 2.00808 4.57333 1.75919C4.82222 1.5103 5.12556 1.3703 5.48333 1.33919C5.84111 1.30808 6.16 1.38586 6.44 1.57253ZM1.21333 7.21919H12.7867C12.88 7.21919 12.9656 7.25808 13.0433 7.33586C13.1211 7.41364 13.16 7.50697 13.16 7.61586C13.16 7.72475 13.1211 7.81808 13.0433 7.89586C12.9656 7.97364 12.88 8.01253 12.7867 8.01253H1.21333C1.12 8.01253 1.03444 7.97364 0.956667 7.89586C0.878889 7.81808 0.84 7.72475 0.84 7.61586C0.84 7.50697 0.878889 7.41364 0.956667 7.33586C1.03444 7.25808 1.12 7.21919 1.21333 7.21919ZM12.3667 9.64586C12.3667 10.2059 12.2267 10.7192 11.9467 11.1859C11.6667 11.6525 11.2933 12.0259 10.8267 12.3059C10.36 12.5859 9.84667 12.7259 9.28667 12.7259H4.71333C4.15333 12.7259 3.64 12.5859 3.17333 12.3059C2.70667 12.0259 2.33333 11.6525 2.05333 11.1859C1.77333 10.7192 1.63333 10.2059 1.63333 9.64586V8.85253H12.3667V9.64586ZM5.92667 4.65252C5.92667 4.77697 5.96556 4.87808 6.04333 4.95586C6.12111 5.03364 6.21444 5.07253 6.32333 5.07253C6.43222 5.07253 6.52556 5.03364 6.60333 4.95586C6.68111 4.87808 6.72 4.77697 6.72 4.65252C6.72 4.52808 6.68111 4.42697 6.60333 4.34919C6.52556 4.27141 6.43222 4.23253 6.32333 4.23253C6.21444 4.23253 6.12111 4.27141 6.04333 4.34919C5.96556 4.42697 5.92667 4.52808 5.92667 4.65252ZM7.09333 3.48586C7.09333 3.6103 7.13222 3.71141 7.21 3.78919C7.28778 3.86697 7.38111 3.90586 7.49 3.90586C7.59889 3.90586 7.69222 3.86697 7.77 3.78919C7.84778 3.71141 7.88667 3.6103 7.88667 3.48586C7.88667 3.36141 7.84778 3.2603 7.77 3.18253C7.69222 3.10475 7.59889 3.06586 7.49 3.06586C7.38111 3.06586 7.28778 3.10475 7.21 3.18253C7.13222 3.2603 7.09333 3.36141 7.09333 3.48586ZM7.37333 4.93253C7.37333 5.02586 7.41222 5.11919 7.49 5.21253C7.56778 5.30586 7.66111 5.35253 7.77 5.35253C7.87889 5.35253 7.97222 5.30586 8.05 5.21253C8.12778 5.11919 8.16667 5.01808 8.16667 4.90919C8.16667 4.8003 8.12778 4.70697 8.05 4.62919C7.97222 4.55141 7.87889 4.51253 7.77 4.51253C7.66111 4.51253 7.56778 4.55141 7.49 4.62919C7.41222 4.70697 7.37333 4.80808 7.37333 4.93253Z" fill="#565353"/>
</g>
<defs>
<clipPath id="clip0_570_10213">
<rect width="14" height="14" fill="white" transform="matrix(1 0 0 -1 0 14.5)"/>
</clipPath>
</defs>
</svg>
