<svg width="90" height="20" viewBox="0 0 90 20" fill="none" xmlns="http://www.w3.org/2000/svg">
<path d="M7.37019 6.11758L2.05353 6.88841L1.95936 6.90758C1.81681 6.94542 1.68685 7.02042 1.58277 7.12491C1.47868 7.22941 1.4042 7.35965 1.36691 7.50235C1.32963 7.64505 1.33088 7.79509 1.37055 7.93714C1.41022 8.07919 1.48687 8.20817 1.59269 8.31091L5.44436 12.0601L4.53603 17.3559L4.52519 17.4476C4.51647 17.595 4.54708 17.7421 4.6139 17.8738C4.68072 18.0055 4.78135 18.1171 4.90547 18.1972C5.0296 18.2772 5.17277 18.3228 5.32032 18.3293C5.46786 18.3358 5.6145 18.303 5.74519 18.2342L10.5002 15.7342L15.2444 18.2342L15.3277 18.2726C15.4652 18.3268 15.6147 18.3434 15.7608 18.3207C15.9069 18.298 16.0443 18.2369 16.159 18.1436C16.2737 18.0503 16.3615 17.9282 16.4134 17.7898C16.4653 17.6513 16.4794 17.5016 16.4544 17.3559L15.5452 12.0601L19.3985 8.31008L19.4635 8.23924C19.5564 8.12489 19.6173 7.98796 19.64 7.84241C19.6627 7.69686 19.6464 7.54789 19.5928 7.41069C19.5392 7.27348 19.4501 7.15294 19.3348 7.06134C19.2194 6.96974 19.0818 6.91036 18.936 6.88925L13.6194 6.11758L11.2427 1.30091C11.1739 1.16136 11.0675 1.04384 10.9353 0.961666C10.8032 0.87949 10.6508 0.835938 10.4952 0.835938C10.3396 0.835938 10.1871 0.87949 10.055 0.961666C9.92293 1.04384 9.81646 1.16136 9.74769 1.30091L7.37019 6.11758Z" fill="#E65252"/>
<path d="M30.3702 6.11758L25.0535 6.88841L24.9594 6.90758C24.8168 6.94542 24.6869 7.02042 24.5828 7.12491C24.4787 7.22941 24.4042 7.35965 24.3669 7.50235C24.3296 7.64505 24.3309 7.79509 24.3705 7.93714C24.4102 8.07919 24.4869 8.20817 24.5927 8.31091L28.4444 12.0601L27.536 17.3559L27.5252 17.4476C27.5165 17.595 27.5471 17.7421 27.6139 17.8738C27.6807 18.0055 27.7813 18.1171 27.9055 18.1972C28.0296 18.2772 28.1728 18.3228 28.3203 18.3293C28.4679 18.3358 28.6145 18.303 28.7452 18.2342L33.5002 15.7342L38.2444 18.2342L38.3277 18.2726C38.4652 18.3268 38.6147 18.3434 38.7608 18.3207C38.9069 18.298 39.0443 18.2369 39.159 18.1436C39.2737 18.0503 39.3615 17.9282 39.4134 17.7898C39.4653 17.6513 39.4794 17.5016 39.4544 17.3559L38.5452 12.0601L42.3985 8.31008L42.4635 8.23924C42.5564 8.12489 42.6173 7.98796 42.64 7.84241C42.6627 7.69686 42.6464 7.54789 42.5928 7.41069C42.5392 7.27348 42.4501 7.15294 42.3348 7.06134C42.2194 6.96974 42.0818 6.91036 41.936 6.88925L36.6194 6.11758L34.2427 1.30091C34.1739 1.16136 34.0675 1.04384 33.9353 0.961666C33.8032 0.87949 33.6508 0.835938 33.4952 0.835938C33.3396 0.835938 33.1871 0.87949 33.055 0.961666C32.9229 1.04384 32.8165 1.16136 32.7477 1.30091L30.3702 6.11758Z" fill="#E65252"/>
<path d="M53.3702 6.11758L48.0535 6.88841L47.9594 6.90758C47.8168 6.94542 47.6869 7.02042 47.5828 7.12491C47.4787 7.22941 47.4042 7.35965 47.3669 7.50235C47.3296 7.64505 47.3309 7.79509 47.3705 7.93714C47.4102 8.07919 47.4869 8.20817 47.5927 8.31091L51.4444 12.0601L50.536 17.3559L50.5252 17.4476C50.5165 17.595 50.5471 17.7421 50.6139 17.8738C50.6807 18.0055 50.7813 18.1171 50.9055 18.1972C51.0296 18.2772 51.1728 18.3228 51.3203 18.3293C51.4679 18.3358 51.6145 18.303 51.7452 18.2342L56.5002 15.7342L61.2444 18.2342L61.3277 18.2726C61.4652 18.3268 61.6147 18.3434 61.7608 18.3207C61.9069 18.298 62.0443 18.2369 62.159 18.1436C62.2737 18.0503 62.3615 17.9282 62.4134 17.7898C62.4653 17.6513 62.4794 17.5016 62.4544 17.3559L61.5452 12.0601L65.3985 8.31008L65.4635 8.23924C65.5564 8.12489 65.6173 7.98796 65.64 7.84241C65.6627 7.69686 65.6464 7.54789 65.5928 7.41069C65.5392 7.27348 65.4501 7.15294 65.3348 7.06134C65.2194 6.96974 65.0818 6.91036 64.936 6.88925L59.6194 6.11758L57.2427 1.30091C57.1739 1.16136 57.0675 1.04384 56.9353 0.961666C56.8032 0.87949 56.6508 0.835938 56.4952 0.835938C56.3396 0.835938 56.1871 0.87949 56.055 0.961666C55.9229 1.04384 55.8165 1.16136 55.7477 1.30091L53.3702 6.11758Z" fill="#E65252"/>
<path d="M76.3702 6.11758L71.0535 6.88841L70.9594 6.90758C70.8168 6.94542 70.6869 7.02042 70.5828 7.12491C70.4787 7.22941 70.4042 7.35965 70.3669 7.50235C70.3296 7.64505 70.3309 7.79509 70.3705 7.93714C70.4102 8.07919 70.4869 8.20817 70.5927 8.31091L74.4444 12.0601L73.536 17.3559L73.5252 17.4476C73.5165 17.595 73.5471 17.7421 73.6139 17.8738C73.6807 18.0055 73.7813 18.1171 73.9055 18.1972C74.0296 18.2772 74.1728 18.3228 74.3203 18.3293C74.4679 18.3358 74.6145 18.303 74.7452 18.2342L79.5002 15.7342L84.2444 18.2342L84.3277 18.2726C84.4652 18.3268 84.6147 18.3434 84.7608 18.3207C84.9069 18.298 85.0443 18.2369 85.159 18.1436C85.2737 18.0503 85.3615 17.9282 85.4134 17.7898C85.4653 17.6513 85.4794 17.5016 85.4544 17.3559L84.5452 12.0601L88.3985 8.31008L88.4635 8.23924C88.5564 8.12489 88.6173 7.98796 88.64 7.84241C88.6627 7.69686 88.6464 7.54789 88.5928 7.41069C88.5392 7.27348 88.4501 7.15294 88.3348 7.06134C88.2194 6.96974 88.0818 6.91036 87.936 6.88925L82.6194 6.11758L80.2427 1.30091C80.1739 1.16136 80.0675 1.04384 79.9353 0.961666C79.8032 0.87949 79.6508 0.835938 79.4952 0.835938C79.3396 0.835938 79.1871 0.87949 79.055 0.961666C78.9229 1.04384 78.8165 1.16136 78.7477 1.30091L76.3702 6.11758Z" fill="#E65252"/>
</svg>
