<svg width="15" height="15" viewBox="0 0 15 15" fill="none" xmlns="http://www.w3.org/2000/svg">
<path d="M12.78 12.7827H10.5585V9.30274C10.5585 8.47249 10.5413 7.40449 9.4005 7.40449C8.2425 7.40449 8.0655 8.30749 8.0655 9.24124V12.7827H5.84475V5.62549H7.97775V6.60049H8.007C8.30475 6.03799 9.03 5.44549 10.113 5.44549C12.3638 5.44549 12.78 6.92599 12.78 8.85424V12.7827ZM3.33525 4.64599C2.61975 4.64599 2.04525 4.06774 2.04525 3.35599C2.04525 2.64424 2.6205 2.06599 3.33525 2.06599C3.67738 2.06599 4.0055 2.2019 4.24742 2.44382C4.48934 2.68574 4.62525 3.01386 4.62525 3.35599C4.62525 3.69812 4.48934 4.02623 4.24742 4.26816C4.0055 4.51008 3.67738 4.64599 3.33525 4.64599ZM4.44825 12.7835H2.22075V5.62549H4.44825V12.7835ZM13.8915 0.000488281H1.107C0.495 0.000488281 0 0.484238 0 1.08049V13.9205C0 14.5167 0.495 15.0005 1.107 15.0005H13.8885C14.4998 15.0005 15 14.5175 15 13.9205V1.08049C15 0.484988 14.4998 0.000488281 13.8885 0.000488281H13.8915Z" fill="white"/>
</svg>
