<svg width="16" height="15" viewBox="0 0 16 15" fill="none" xmlns="http://www.w3.org/2000/svg">
<path d="M8.5337 0C9.37746 0.00225002 9.80571 0.00675006 10.1755 0.0172501L10.321 0.0225002C10.489 0.0285002 10.6547 0.0360002 10.855 0.0450003C11.653 0.0825006 12.1975 0.208502 12.6752 0.393753C13.1702 0.584255 13.5872 0.842257 14.0042 1.25851C14.3858 1.63331 14.6809 2.08687 14.869 2.58752C15.0543 3.06527 15.1803 3.60978 15.2178 4.40854C15.2268 4.60804 15.2343 4.77379 15.2403 4.94254L15.2448 5.08804C15.256 5.45704 15.2605 5.8853 15.262 6.72905L15.2628 7.28856V8.27107C15.2646 8.81812 15.2588 9.36518 15.2455 9.91208L15.241 10.0576C15.235 10.2263 15.2275 10.3921 15.2185 10.5916C15.181 11.3903 15.0535 11.9341 14.869 12.4126C14.6809 12.9132 14.3858 13.3668 14.0042 13.7416C13.6294 14.1231 13.1759 14.4183 12.6752 14.6064C12.1975 14.7916 11.653 14.9176 10.855 14.9551L10.321 14.9776L10.1755 14.9821C9.80571 14.9926 9.37746 14.9979 8.5337 14.9994L7.97419 15.0001H6.99244C6.44513 15.0021 5.89782 14.9963 5.35067 14.9829L5.20517 14.9784C5.02713 14.9716 4.84912 14.9639 4.67117 14.9551C3.87316 14.9176 3.32866 14.7916 2.85015 14.6064C2.34977 14.4182 1.89648 14.123 1.52189 13.7416C1.1401 13.3669 0.84472 12.9133 0.656387 12.4126C0.471135 11.9348 0.345134 11.3903 0.307634 10.5916L0.285134 10.0576L0.281384 9.91208C0.267558 9.36519 0.261308 8.81813 0.262634 8.27107V6.72905C0.260558 6.182 0.266058 5.63494 0.279134 5.08804L0.284384 4.94254C0.290384 4.77379 0.297884 4.60804 0.306884 4.40854C0.344384 3.60978 0.470385 3.06602 0.655637 2.58752C0.844409 2.08667 1.14031 1.63309 1.52264 1.25851C1.89701 0.877169 2.35004 0.58206 2.85015 0.393753C3.32866 0.208502 3.87241 0.0825006 4.67117 0.0450003C4.87067 0.0360002 5.03717 0.0285002 5.20517 0.0225002L5.35067 0.0180001C5.89757 0.00467457 6.44463 -0.00107603 6.99169 0.000749952L8.5337 0ZM7.76269 3.75003C6.76812 3.75003 5.81429 4.14512 5.11102 4.84839C4.40775 5.55166 4.01266 6.50549 4.01266 7.50006C4.01266 8.49463 4.40775 9.44847 5.11102 10.1517C5.81429 10.855 6.76812 11.2501 7.76269 11.2501C8.75726 11.2501 9.7111 10.855 10.4144 10.1517C11.1176 9.44847 11.5127 8.49463 11.5127 7.50006C11.5127 6.50549 11.1176 5.55166 10.4144 4.84839C9.7111 4.14512 8.75726 3.75003 7.76269 3.75003ZM7.76269 5.25004C8.05817 5.24999 8.35076 5.30814 8.62377 5.42117C8.89677 5.5342 9.14484 5.69989 9.35381 5.90879C9.56277 6.11769 9.72855 6.3657 9.84167 6.63867C9.95479 6.91164 10.013 7.20421 10.0131 7.49969C10.0131 7.79516 9.95499 8.08776 9.84196 8.36076C9.72893 8.63376 9.56324 8.88183 9.35434 9.0908C9.14544 9.29977 8.89742 9.46554 8.62446 9.57866C8.35149 9.69178 8.05892 9.75003 7.76344 9.75008C7.1667 9.75008 6.5944 9.51302 6.17244 9.09106C5.75048 8.6691 5.51343 8.0968 5.51343 7.50006C5.51343 6.90332 5.75048 6.33102 6.17244 5.90906C6.5944 5.4871 7.1667 5.25004 7.76344 5.25004M11.701 2.62502C11.4523 2.62502 11.2139 2.72379 11.0381 2.89961C10.8622 3.07543 10.7635 3.31389 10.7635 3.56253C10.7635 3.81117 10.8622 4.04963 11.0381 4.22545C11.2139 4.40126 11.4523 4.50004 11.701 4.50004C11.9496 4.50004 12.1881 4.40126 12.3639 4.22545C12.5397 4.04963 12.6385 3.81117 12.6385 3.56253C12.6385 3.31389 12.5397 3.07543 12.3639 2.89961C12.1881 2.72379 11.9496 2.62502 11.701 2.62502Z" fill="white"/>
</svg>
