<svg width="15" height="14" viewBox="0 0 15 14" fill="none" xmlns="http://www.w3.org/2000/svg">
<path d="M13.2986 9.62889C12.3419 9.62889 11.4164 9.47333 10.553 9.19333C10.2808 9.1 9.97749 9.17 9.76749 9.38L8.54638 10.9122C6.34527 9.86222 4.28416 7.87889 3.18749 5.6L4.70416 4.30889C4.91416 4.09111 4.97638 3.78778 4.89083 3.51556C4.60305 2.65222 4.45527 1.72667 4.45527 0.77C4.45527 0.35 4.10527 0 3.68527 0H0.994159C0.574159 0 0.0686035 0.186667 0.0686035 0.77C0.0686035 7.99556 6.08083 14 13.2986 14C13.8508 14 14.0686 13.51 14.0686 13.0822V10.3989C14.0686 9.97889 13.7186 9.62889 13.2986 9.62889Z" fill="white"/>
</svg>
