<svg width="519" height="189" viewBox="0 0 519 189" fill="none" xmlns="http://www.w3.org/2000/svg">
<rect x="0.5" y="0.5" width="518" height="188" rx="11.5" stroke="#DADADA"/>
<path d="M31.205 31.765C31.205 34.9 28.85 37.105 25.88 37.105C22.94 37.105 20.555 34.9 20.555 31.765C20.555 28.645 22.94 26.44 25.88 26.44C28.85 26.44 31.205 28.645 31.205 31.765ZM22.31 31.765C22.31 34.12 23.81 35.62 25.88 35.62C27.95 35.62 29.45 34.12 29.45 31.765C29.45 29.41 27.95 27.94 25.88 27.94C23.81 27.94 22.31 29.41 22.31 31.765ZM34.2977 32.65V37H32.5877V28.735H34.2977V29.935C34.7777 29.11 35.6027 28.6 36.7727 28.6V30.37H36.3377C35.0777 30.37 34.2977 30.895 34.2977 32.65ZM37.4745 32.83C37.4745 30.28 39.1995 28.6 41.3745 28.6C42.7245 28.6 43.7295 29.23 44.2395 29.935V28.735H45.9645V37.135C45.9645 39.385 44.5095 41.08 41.9295 41.08C39.7245 41.08 38.0895 39.985 37.8795 38.155H39.5745C39.8295 39.01 40.7445 39.595 41.9295 39.595C43.2495 39.595 44.2395 38.785 44.2395 37.135V35.755C43.7145 36.46 42.7245 37.135 41.3745 37.135C39.1995 37.135 37.4745 35.38 37.4745 32.83ZM44.2395 32.86C44.2395 31.09 43.0245 30.085 41.7345 30.085C40.4595 30.085 39.2295 31.045 39.2295 32.83C39.2295 34.615 40.4595 35.65 41.7345 35.65C43.0245 35.65 44.2395 34.645 44.2395 32.86ZM47.3405 32.83C47.3405 30.28 49.0655 28.6 51.2405 28.6C52.6355 28.6 53.5955 29.26 54.1055 29.935V28.735H55.8305V37H54.1055V35.77C53.5805 36.475 52.5905 37.135 51.2105 37.135C49.0655 37.135 47.3405 35.38 47.3405 32.83ZM54.1055 32.86C54.1055 31.09 52.8905 30.085 51.6005 30.085C50.3255 30.085 49.0955 31.045 49.0955 32.83C49.0955 34.615 50.3255 35.65 51.6005 35.65C52.8905 35.65 54.1055 34.645 54.1055 32.86ZM63.6416 37V32.38C63.6416 30.865 62.8166 30.085 61.5716 30.085C60.3116 30.085 59.4866 30.865 59.4866 32.38V37H57.7766V28.735H59.4866V29.68C60.0416 29.005 60.9566 28.6 61.9466 28.6C63.8816 28.6 65.3366 29.815 65.3366 32.125V37H63.6416ZM67.2178 37V28.735H68.9278V37H67.2178ZM68.0878 27.64C67.4728 27.64 66.9928 27.16 66.9928 26.545C66.9928 25.93 67.4728 25.45 68.0878 25.45C68.6878 25.45 69.1678 25.93 69.1678 26.545C69.1678 27.16 68.6878 27.64 68.0878 27.64ZM70.3029 32.86C70.3029 30.28 71.9829 28.6 74.3529 28.6C76.3779 28.6 77.6979 29.605 78.1629 31.345H76.3179C76.0329 30.55 75.3729 30.04 74.3529 30.04C72.9729 30.04 72.0579 31.06 72.0579 32.86C72.0579 34.675 72.9729 35.695 74.3529 35.695C75.3729 35.695 76.0029 35.245 76.3179 34.39H78.1629C77.6979 36.01 76.3779 37.135 74.3529 37.135C71.9829 37.135 70.3029 35.455 70.3029 32.86ZM84.8735 31.375H86.7635C88.0985 31.375 88.6985 30.73 88.6985 29.68C88.6985 28.6 88.0985 27.97 86.7635 27.97H84.8735V31.375ZM90.4535 29.68C90.4535 31.165 89.4785 32.77 86.7635 32.77H84.8735V37H83.1635V26.575H86.7635C89.2385 26.575 90.4535 27.985 90.4535 29.68ZM99.6594 32.86C99.6594 35.455 97.7394 37.135 95.3694 37.135C93.0144 37.135 91.2294 35.455 91.2294 32.86C91.2294 30.265 93.0894 28.6 95.4444 28.6C97.7994 28.6 99.6594 30.265 99.6594 32.86ZM92.9694 32.86C92.9694 34.735 94.0794 35.65 95.3694 35.65C96.6444 35.65 97.9044 34.735 97.9044 32.86C97.9044 30.985 96.6894 30.085 95.4144 30.085C94.1244 30.085 92.9694 30.985 92.9694 32.86ZM107.215 34.69C107.215 36.085 106 37.135 104.05 37.135C102.07 37.135 100.675 35.965 100.6 34.465H102.37C102.43 35.14 103.075 35.695 104.02 35.695C105.01 35.695 105.535 35.275 105.535 34.705C105.535 33.085 100.735 34.015 100.735 30.985C100.735 29.665 101.965 28.6 103.915 28.6C105.79 28.6 107.02 29.605 107.11 31.255H105.4C105.34 30.535 104.785 30.04 103.855 30.04C102.94 30.04 102.46 30.415 102.46 30.97C102.46 32.635 107.125 31.705 107.215 34.69ZM108.762 37V28.735H110.472V37H108.762ZM109.632 27.64C109.017 27.64 108.537 27.16 108.537 26.545C108.537 25.93 109.017 25.45 109.632 25.45C110.232 25.45 110.712 25.93 110.712 26.545C110.712 27.16 110.232 27.64 109.632 27.64ZM112.688 34.705V30.13H111.713V28.735H112.688V26.68H114.413V28.735H116.423V30.13H114.413V34.705C114.413 35.32 114.653 35.575 115.373 35.575H116.423V37H115.073C113.603 37 112.688 36.385 112.688 34.705ZM117.699 37V28.735H119.409V37H117.699ZM118.569 27.64C117.954 27.64 117.474 27.16 117.474 26.545C117.474 25.93 117.954 25.45 118.569 25.45C119.169 25.45 119.649 25.93 119.649 26.545C119.649 27.16 119.169 27.64 118.569 27.64ZM129.229 32.86C129.229 35.455 127.309 37.135 124.939 37.135C122.584 37.135 120.799 35.455 120.799 32.86C120.799 30.265 122.659 28.6 125.014 28.6C127.369 28.6 129.229 30.265 129.229 32.86ZM122.539 32.86C122.539 34.735 123.649 35.65 124.939 35.65C126.214 35.65 127.474 34.735 127.474 32.86C127.474 30.985 126.259 30.085 124.984 30.085C123.694 30.085 122.539 30.985 122.539 32.86ZM136.484 37V32.38C136.484 30.865 135.659 30.085 134.414 30.085C133.154 30.085 132.329 30.865 132.329 32.38V37H130.619V28.735H132.329V29.68C132.884 29.005 133.799 28.6 134.789 28.6C136.724 28.6 138.179 29.815 138.179 32.125V37H136.484ZM147.062 26.575C150.407 26.575 152.597 28.6 152.597 31.825C152.597 35.035 150.407 37 147.062 37H143.657V26.575H147.062ZM145.367 35.605H147.062C149.522 35.605 150.842 34.195 150.842 31.825C150.842 29.44 149.522 27.97 147.062 27.97H145.367V35.605ZM153.992 37V28.735H155.702V37H153.992ZM154.862 27.64C154.247 27.64 153.767 27.16 153.767 26.545C153.767 25.93 154.247 25.45 154.862 25.45C155.462 25.45 155.942 25.93 155.942 26.545C155.942 27.16 155.462 27.64 154.862 27.64ZM163.812 34.69C163.812 36.085 162.597 37.135 160.647 37.135C158.667 37.135 157.272 35.965 157.197 34.465H158.967C159.027 35.14 159.672 35.695 160.617 35.695C161.607 35.695 162.132 35.275 162.132 34.705C162.132 33.085 157.332 34.015 157.332 30.985C157.332 29.665 158.562 28.6 160.512 28.6C162.387 28.6 163.617 29.605 163.707 31.255H161.997C161.937 30.535 161.382 30.04 160.452 30.04C159.537 30.04 159.057 30.415 159.057 30.97C159.057 32.635 163.722 31.705 163.812 34.69ZM165.629 34.705V30.13H164.654V28.735H165.629V26.68H167.354V28.735H169.364V30.13H167.354V34.705C167.354 35.32 167.594 35.575 168.314 35.575H169.364V37H168.014C166.544 37 165.629 36.385 165.629 34.705ZM172.35 32.65V37H170.64V28.735H172.35V29.935C172.83 29.11 173.655 28.6 174.825 28.6V30.37H174.39C173.13 30.37 172.35 30.895 172.35 32.65ZM176.097 37V28.735H177.807V37H176.097ZM176.967 27.64C176.352 27.64 175.872 27.16 175.872 26.545C175.872 25.93 176.352 25.45 176.967 25.45C177.567 25.45 178.047 25.93 178.047 26.545C178.047 27.16 177.567 27.64 176.967 27.64ZM181.462 29.965C182.002 29.215 183.037 28.6 184.342 28.6C186.532 28.6 188.227 30.28 188.227 32.83C188.227 35.38 186.517 37.135 184.342 37.135C182.977 37.135 182.002 36.52 181.462 35.8V37H179.752V25.9H181.462V29.965ZM186.487 32.83C186.487 31.045 185.257 30.085 183.967 30.085C182.692 30.085 181.462 31.09 181.462 32.86C181.462 34.645 182.692 35.65 183.967 35.65C185.257 35.65 186.487 34.615 186.487 32.83ZM197.103 28.735V37H195.393V36.01C194.853 36.715 193.923 37.12 192.948 37.12C191.013 37.12 189.543 35.905 189.543 33.595V28.735H191.238V33.34C191.238 34.855 192.063 35.635 193.308 35.635C194.568 35.635 195.393 34.855 195.393 33.34V28.735H197.103ZM199.33 34.705V30.13H198.355V28.735H199.33V26.68H201.055V28.735H203.065V30.13H201.055V34.705C201.055 35.32 201.295 35.575 202.015 35.575H203.065V37H201.715C200.245 37 199.33 36.385 199.33 34.705ZM204.341 37V28.735H206.051V37H204.341ZM205.211 27.64C204.596 27.64 204.116 27.16 204.116 26.545C204.116 25.93 204.596 25.45 205.211 25.45C205.811 25.45 206.291 25.93 206.291 26.545C206.291 27.16 205.811 27.64 205.211 27.64ZM215.871 32.86C215.871 35.455 213.951 37.135 211.581 37.135C209.226 37.135 207.441 35.455 207.441 32.86C207.441 30.265 209.301 28.6 211.656 28.6C214.011 28.6 215.871 30.265 215.871 32.86ZM209.181 32.86C209.181 34.735 210.291 35.65 211.581 35.65C212.856 35.65 214.116 34.735 214.116 32.86C214.116 30.985 212.901 30.085 211.626 30.085C210.336 30.085 209.181 30.985 209.181 32.86ZM223.126 37V32.38C223.126 30.865 222.301 30.085 221.056 30.085C219.796 30.085 218.971 30.865 218.971 32.38V37H217.261V28.735H218.971V29.68C219.526 29.005 220.441 28.6 221.431 28.6C223.366 28.6 224.821 29.815 224.821 32.125V37H223.126Z" fill="#565353"/>
<path d="M20.6 88.0192C20.6467 87.4059 20.8833 86.9259 21.31 86.5792C21.7367 86.2325 22.29 86.0592 22.97 86.0592C23.4233 86.0592 23.8133 86.1425 24.14 86.3092C24.4733 86.4692 24.7233 86.6892 24.89 86.9692C25.0633 87.2492 25.15 87.5659 25.15 87.9192C25.15 88.3325 25.03 88.6892 24.79 88.9892C24.5567 89.2892 24.25 89.4825 23.87 89.5692V89.6192C24.3033 89.7259 24.6467 89.9359 24.9 90.2492C25.1533 90.5625 25.28 90.9725 25.28 91.4792C25.28 91.8592 25.1933 92.2025 25.02 92.5092C24.8467 92.8092 24.5867 93.0459 24.24 93.2192C23.8933 93.3925 23.4767 93.4792 22.99 93.4792C22.2833 93.4792 21.7033 93.2959 21.25 92.9292C20.7967 92.5559 20.5433 92.0292 20.49 91.3492H21.37C21.4167 91.7492 21.58 92.0759 21.86 92.3292C22.14 92.5825 22.5133 92.7092 22.98 92.7092C23.4467 92.7092 23.8 92.5892 24.04 92.3492C24.2867 92.1025 24.41 91.7859 24.41 91.3992C24.41 90.8992 24.2433 90.5392 23.91 90.3192C23.5767 90.0992 23.0733 89.9892 22.4 89.9892H22.17V89.2292H22.41C23.0233 89.2225 23.4867 89.1225 23.8 88.9292C24.1133 88.7292 24.27 88.4225 24.27 88.0092C24.27 87.6559 24.1533 87.3725 23.92 87.1592C23.6933 86.9459 23.3667 86.8392 22.94 86.8392C22.5267 86.8392 22.1933 86.9459 21.94 87.1592C21.6867 87.3725 21.5367 87.6592 21.49 88.0192H20.6ZM26.5087 89.7392C26.5087 88.5925 26.6953 87.6992 27.0687 87.0592C27.442 86.4125 28.0953 86.0892 29.0287 86.0892C29.9553 86.0892 30.6053 86.4125 30.9787 87.0592C31.352 87.6992 31.5387 88.5925 31.5387 89.7392C31.5387 90.9059 31.352 91.8125 30.9787 92.4592C30.6053 93.1059 29.9553 93.4292 29.0287 93.4292C28.0953 93.4292 27.442 93.1059 27.0687 92.4592C26.6953 91.8125 26.5087 90.9059 26.5087 89.7392ZM30.6387 89.7392C30.6387 89.1592 30.5987 88.6692 30.5187 88.2692C30.4453 87.8625 30.2887 87.5359 30.0487 87.2892C29.8153 87.0425 29.4753 86.9192 29.0287 86.9192C28.5753 86.9192 28.2287 87.0425 27.9887 87.2892C27.7553 87.5359 27.5987 87.8625 27.5187 88.2692C27.4453 88.6692 27.4087 89.1592 27.4087 89.7392C27.4087 90.3392 27.4453 90.8425 27.5187 91.2492C27.5987 91.6559 27.7553 91.9825 27.9887 92.2292C28.2287 92.4759 28.5753 92.5992 29.0287 92.5992C29.4753 92.5992 29.8153 92.4759 30.0487 92.2292C30.2887 91.9825 30.4453 91.6559 30.5187 91.2492C30.5987 90.8425 30.6387 90.3392 30.6387 89.7392Z" fill="#565353"/>
<path d="M20.51 117.699C21.3567 117.019 22.02 116.463 22.5 116.029C22.98 115.589 23.3833 115.133 23.71 114.659C24.0433 114.179 24.21 113.709 24.21 113.249C24.21 112.816 24.1033 112.476 23.89 112.229C23.6833 111.976 23.3467 111.849 22.88 111.849C22.4267 111.849 22.0733 111.993 21.82 112.279C21.5733 112.559 21.44 112.936 21.42 113.409H20.54C20.5667 112.663 20.7933 112.086 21.22 111.679C21.6467 111.273 22.1967 111.069 22.87 111.069C23.5567 111.069 24.1 111.259 24.5 111.639C24.9067 112.019 25.11 112.543 25.11 113.209C25.11 113.763 24.9433 114.303 24.61 114.829C24.2833 115.349 23.91 115.809 23.49 116.209C23.07 116.603 22.5333 117.063 21.88 117.589H25.32V118.349H20.51V117.699ZM26.372 114.739C26.372 113.593 26.5586 112.699 26.932 112.059C27.3053 111.413 27.9586 111.089 28.892 111.089C29.8186 111.089 30.4686 111.413 30.842 112.059C31.2153 112.699 31.402 113.593 31.402 114.739C31.402 115.906 31.2153 116.813 30.842 117.459C30.4686 118.106 29.8186 118.429 28.892 118.429C27.9586 118.429 27.3053 118.106 26.932 117.459C26.5586 116.813 26.372 115.906 26.372 114.739ZM30.502 114.739C30.502 114.159 30.462 113.669 30.382 113.269C30.3086 112.863 30.152 112.536 29.912 112.289C29.6786 112.043 29.3386 111.919 28.892 111.919C28.4386 111.919 28.092 112.043 27.852 112.289C27.6186 112.536 27.462 112.863 27.382 113.269C27.3086 113.669 27.272 114.159 27.272 114.739C27.272 115.339 27.3086 115.843 27.382 116.249C27.462 116.656 27.6186 116.983 27.852 117.229C28.092 117.476 28.4386 117.599 28.892 117.599C29.3386 117.599 29.6786 117.476 29.912 117.229C30.152 116.983 30.3086 116.656 30.382 116.249C30.462 115.843 30.502 115.339 30.502 114.739Z" fill="#565353"/>
<path d="M20.38 137.029V136.199H22.26V143.429H21.34V137.029H20.38ZM23.8231 139.739C23.8231 138.593 24.0098 137.699 24.3831 137.059C24.7565 136.413 25.4098 136.089 26.3431 136.089C27.2698 136.089 27.9198 136.413 28.2931 137.059C28.6665 137.699 28.8531 138.593 28.8531 139.739C28.8531 140.906 28.6665 141.813 28.2931 142.459C27.9198 143.106 27.2698 143.429 26.3431 143.429C25.4098 143.429 24.7565 143.106 24.3831 142.459C24.0098 141.813 23.8231 140.906 23.8231 139.739ZM27.9531 139.739C27.9531 139.159 27.9131 138.669 27.8331 138.269C27.7598 137.863 27.6031 137.536 27.3631 137.289C27.1298 137.043 26.7898 136.919 26.3431 136.919C25.8898 136.919 25.5431 137.043 25.3031 137.289C25.0698 137.536 24.9131 137.863 24.8331 138.269C24.7598 138.669 24.7231 139.159 24.7231 139.739C24.7231 140.339 24.7598 140.843 24.8331 141.249C24.9131 141.656 25.0698 141.983 25.3031 142.229C25.5431 142.476 25.8898 142.599 26.3431 142.599C26.7898 142.599 27.1298 142.476 27.3631 142.229C27.6031 141.983 27.7598 141.656 27.8331 141.249C27.9131 140.843 27.9531 140.339 27.9531 139.739Z" fill="#565353"/>
<path d="M20.62 164.739C20.62 163.593 20.8067 162.699 21.18 162.059C21.5533 161.413 22.2067 161.089 23.14 161.089C24.0667 161.089 24.7167 161.413 25.09 162.059C25.4633 162.699 25.65 163.593 25.65 164.739C25.65 165.906 25.4633 166.813 25.09 167.459C24.7167 168.106 24.0667 168.429 23.14 168.429C22.2067 168.429 21.5533 168.106 21.18 167.459C20.8067 166.813 20.62 165.906 20.62 164.739ZM24.75 164.739C24.75 164.159 24.71 163.669 24.63 163.269C24.5567 162.863 24.4 162.536 24.16 162.289C23.9267 162.043 23.5867 161.919 23.14 161.919C22.6867 161.919 22.34 162.043 22.1 162.289C21.8667 162.536 21.71 162.863 21.63 163.269C21.5567 163.669 21.52 164.159 21.52 164.739C21.52 165.339 21.5567 165.843 21.63 166.249C21.71 166.656 21.8667 166.983 22.1 167.229C22.34 167.476 22.6867 167.599 23.14 167.599C23.5867 167.599 23.9267 167.476 24.16 167.229C24.4 166.983 24.5567 166.656 24.63 166.249C24.71 165.843 24.75 165.339 24.75 164.739Z" fill="#565353"/>
<path d="M62.7126 167.484C63.5593 166.804 64.2226 166.248 64.7026 165.814C65.1826 165.374 65.586 164.918 65.9126 164.444C66.246 163.964 66.4126 163.494 66.4126 163.034C66.4126 162.601 66.306 162.261 66.0926 162.014C65.886 161.761 65.5493 161.634 65.0826 161.634C64.6293 161.634 64.276 161.778 64.0226 162.064C63.776 162.344 63.6426 162.721 63.6226 163.194H62.7426C62.7693 162.448 62.996 161.871 63.4226 161.464C63.8493 161.058 64.3993 160.854 65.0726 160.854C65.7593 160.854 66.3026 161.044 66.7026 161.424C67.1093 161.804 67.3126 162.328 67.3126 162.994C67.3126 163.548 67.146 164.088 66.8126 164.614C66.486 165.134 66.1126 165.594 65.6926 165.994C65.2726 166.388 64.736 166.848 64.0826 167.374H67.5226V168.134H62.7126V167.484Z" fill="#565353"/>
<path d="M89.6026 166.604V165.914L93.1126 161.054H94.2026V165.814H95.2026V166.604H94.2026V168.214H93.3026V166.604H89.6026ZM93.3426 162.004L90.6526 165.814H93.3426V162.004Z" fill="#565353"/>
<path d="M120.853 162.704C120.706 161.964 120.249 161.594 119.483 161.594C118.889 161.594 118.446 161.824 118.153 162.284C117.859 162.738 117.716 163.488 117.723 164.534C117.876 164.188 118.129 163.918 118.483 163.724C118.843 163.524 119.243 163.424 119.683 163.424C120.369 163.424 120.916 163.638 121.323 164.064C121.736 164.491 121.943 165.081 121.943 165.834C121.943 166.288 121.853 166.694 121.673 167.054C121.499 167.414 121.233 167.701 120.873 167.914C120.519 168.128 120.089 168.234 119.583 168.234C118.896 168.234 118.359 168.081 117.973 167.774C117.586 167.468 117.316 167.044 117.163 166.504C117.009 165.964 116.933 165.298 116.933 164.504C116.933 162.058 117.786 160.834 119.493 160.834C120.146 160.834 120.659 161.011 121.033 161.364C121.406 161.718 121.626 162.164 121.693 162.704H120.853ZM119.493 164.194C119.206 164.194 118.936 164.254 118.683 164.374C118.429 164.488 118.223 164.664 118.063 164.904C117.909 165.138 117.833 165.424 117.833 165.764C117.833 166.271 117.979 166.684 118.273 167.004C118.566 167.318 118.986 167.474 119.533 167.474C119.999 167.474 120.369 167.331 120.643 167.044C120.923 166.751 121.063 166.358 121.063 165.864C121.063 165.344 120.929 164.938 120.663 164.644C120.396 164.344 120.006 164.194 119.493 164.194Z" fill="#565353"/>
<path d="M145.143 164.454C144.769 164.308 144.483 164.094 144.283 163.814C144.083 163.534 143.983 163.194 143.983 162.794C143.983 162.434 144.073 162.111 144.253 161.824C144.433 161.531 144.699 161.301 145.053 161.134C145.413 160.961 145.846 160.874 146.353 160.874C146.859 160.874 147.289 160.961 147.643 161.134C148.003 161.301 148.273 161.531 148.453 161.824C148.639 162.111 148.733 162.434 148.733 162.794C148.733 163.181 148.629 163.521 148.423 163.814C148.216 164.101 147.933 164.314 147.573 164.454C147.986 164.581 148.313 164.804 148.553 165.124C148.799 165.438 148.923 165.818 148.923 166.264C148.923 166.698 148.816 167.078 148.603 167.404C148.389 167.724 148.086 167.974 147.693 168.154C147.306 168.328 146.859 168.414 146.353 168.414C145.846 168.414 145.399 168.328 145.013 168.154C144.633 167.974 144.336 167.724 144.123 167.404C143.909 167.078 143.803 166.698 143.803 166.264C143.803 165.818 143.923 165.434 144.163 165.114C144.403 164.794 144.729 164.574 145.143 164.454ZM147.853 162.904C147.853 162.498 147.719 162.184 147.453 161.964C147.186 161.744 146.819 161.634 146.353 161.634C145.893 161.634 145.529 161.744 145.263 161.964C144.996 162.184 144.863 162.501 144.863 162.914C144.863 163.288 144.999 163.588 145.273 163.814C145.553 164.041 145.913 164.154 146.353 164.154C146.799 164.154 147.159 164.041 147.433 163.814C147.713 163.581 147.853 163.278 147.853 162.904ZM146.353 164.854C145.859 164.854 145.456 164.971 145.143 165.204C144.829 165.431 144.673 165.774 144.673 166.234C144.673 166.661 144.823 167.004 145.123 167.264C145.429 167.524 145.839 167.654 146.353 167.654C146.866 167.654 147.273 167.524 147.573 167.264C147.873 167.004 148.023 166.661 148.023 166.234C148.023 165.788 147.869 165.448 147.563 165.214C147.256 164.974 146.853 164.854 146.353 164.854Z" fill="#565353"/>
<path d="M170.583 161.814V160.984H172.463V168.214H171.543V161.814H170.583ZM174.026 164.524C174.026 163.378 174.212 162.484 174.586 161.844C174.959 161.198 175.612 160.874 176.546 160.874C177.472 160.874 178.122 161.198 178.496 161.844C178.869 162.484 179.056 163.378 179.056 164.524C179.056 165.691 178.869 166.598 178.496 167.244C178.122 167.891 177.472 168.214 176.546 168.214C175.612 168.214 174.959 167.891 174.586 167.244C174.212 166.598 174.026 165.691 174.026 164.524ZM178.156 164.524C178.156 163.944 178.116 163.454 178.036 163.054C177.962 162.648 177.806 162.321 177.566 162.074C177.332 161.828 176.992 161.704 176.546 161.704C176.092 161.704 175.746 161.828 175.506 162.074C175.272 162.321 175.116 162.648 175.036 163.054C174.962 163.454 174.926 163.944 174.926 164.524C174.926 165.124 174.962 165.628 175.036 166.034C175.116 166.441 175.272 166.768 175.506 167.014C175.746 167.261 176.092 167.384 176.546 167.384C176.992 167.384 177.332 167.261 177.566 167.014C177.806 166.768 177.962 166.441 178.036 166.034C178.116 165.628 178.156 165.124 178.156 164.524Z" fill="#565353"/>
<rect x="62.2026" y="114.285" width="11" height="28" rx="1" fill="#E65252"/>
<rect x="91.4612" y="90.2852" width="11" height="52" rx="1" fill="#E65252"/>
<rect x="120.719" y="126.285" width="11" height="16" rx="1" fill="#E65252"/>
<rect x="149.978" y="114.285" width="11" height="28" rx="1" fill="#E65252"/>
<rect x="179.237" y="126.285" width="11" height="16" rx="1" fill="#E65252"/>
<rect x="208.495" y="96.2852" width="11" height="46" rx="1" fill="#E65252"/>
<rect x="237.753" y="126.285" width="11" height="16" rx="1" fill="#E65252"/>
<rect x="267.012" y="90.2852" width="11" height="52" rx="1" fill="#E65252"/>
<rect x="296.271" y="80.2852" width="11" height="62" rx="1" fill="#E65252"/>
<rect x="325.529" y="114.285" width="11" height="28" rx="1" fill="#E65252"/>
<rect x="354.787" y="96.2852" width="11" height="46" rx="1" fill="#E65252"/>
<rect x="384.046" y="102.285" width="11" height="40" rx="1" fill="#E65252"/>
<rect x="413.304" y="90.2852" width="11" height="52" rx="1" fill="#E65252"/>
<rect x="442.563" y="102.285" width="11" height="40" rx="1" fill="#E65252"/>
<rect x="471.821" y="114.285" width="11" height="28" rx="1" fill="#E65252"/>
<path d="M46.7261 151.715V79.4292" stroke="#DADADA"/>
<path d="M46.0261 151.322H499" stroke="#DADADA"/>
</svg>
