<svg width="228" height="371" viewBox="0 0 228 371" fill="none" xmlns="http://www.w3.org/2000/svg">
<rect x="0.5" y="0.5" width="227" height="370" rx="11.5" stroke="#DADADA"/>
<path d="M31.205 31.765C31.205 34.9 28.85 37.105 25.88 37.105C22.94 37.105 20.555 34.9 20.555 31.765C20.555 28.645 22.94 26.44 25.88 26.44C28.85 26.44 31.205 28.645 31.205 31.765ZM22.31 31.765C22.31 34.12 23.81 35.62 25.88 35.62C27.95 35.62 29.45 34.12 29.45 31.765C29.45 29.41 27.95 27.94 25.88 27.94C23.81 27.94 22.31 29.41 22.31 31.765ZM34.2977 32.65V37H32.5877V28.735H34.2977V29.935C34.7777 29.11 35.6027 28.6 36.7727 28.6V30.37H36.3377C35.0777 30.37 34.2977 30.895 34.2977 32.65ZM37.4745 32.83C37.4745 30.28 39.1995 28.6 41.3745 28.6C42.7245 28.6 43.7295 29.23 44.2395 29.935V28.735H45.9645V37.135C45.9645 39.385 44.5095 41.08 41.9295 41.08C39.7245 41.08 38.0895 39.985 37.8795 38.155H39.5745C39.8295 39.01 40.7445 39.595 41.9295 39.595C43.2495 39.595 44.2395 38.785 44.2395 37.135V35.755C43.7145 36.46 42.7245 37.135 41.3745 37.135C39.1995 37.135 37.4745 35.38 37.4745 32.83ZM44.2395 32.86C44.2395 31.09 43.0245 30.085 41.7345 30.085C40.4595 30.085 39.2295 31.045 39.2295 32.83C39.2295 34.615 40.4595 35.65 41.7345 35.65C43.0245 35.65 44.2395 34.645 44.2395 32.86ZM47.3405 32.83C47.3405 30.28 49.0655 28.6 51.2405 28.6C52.6355 28.6 53.5955 29.26 54.1055 29.935V28.735H55.8305V37H54.1055V35.77C53.5805 36.475 52.5905 37.135 51.2105 37.135C49.0655 37.135 47.3405 35.38 47.3405 32.83ZM54.1055 32.86C54.1055 31.09 52.8905 30.085 51.6005 30.085C50.3255 30.085 49.0955 31.045 49.0955 32.83C49.0955 34.615 50.3255 35.65 51.6005 35.65C52.8905 35.65 54.1055 34.645 54.1055 32.86ZM63.6416 37V32.38C63.6416 30.865 62.8166 30.085 61.5716 30.085C60.3116 30.085 59.4866 30.865 59.4866 32.38V37H57.7766V28.735H59.4866V29.68C60.0416 29.005 60.9566 28.6 61.9466 28.6C63.8816 28.6 65.3366 29.815 65.3366 32.125V37H63.6416ZM67.2178 37V28.735H68.9278V37H67.2178ZM68.0878 27.64C67.4728 27.64 66.9928 27.16 66.9928 26.545C66.9928 25.93 67.4728 25.45 68.0878 25.45C68.6878 25.45 69.1678 25.93 69.1678 26.545C69.1678 27.16 68.6878 27.64 68.0878 27.64ZM70.3029 32.86C70.3029 30.28 71.9829 28.6 74.3529 28.6C76.3779 28.6 77.6979 29.605 78.1629 31.345H76.3179C76.0329 30.55 75.3729 30.04 74.3529 30.04C72.9729 30.04 72.0579 31.06 72.0579 32.86C72.0579 34.675 72.9729 35.695 74.3529 35.695C75.3729 35.695 76.0029 35.245 76.3179 34.39H78.1629C77.6979 36.01 76.3779 37.135 74.3529 37.135C71.9829 37.135 70.3029 35.455 70.3029 32.86ZM84.8735 31.375H86.7635C88.0985 31.375 88.6985 30.73 88.6985 29.68C88.6985 28.6 88.0985 27.97 86.7635 27.97H84.8735V31.375ZM90.4535 29.68C90.4535 31.165 89.4785 32.77 86.7635 32.77H84.8735V37H83.1635V26.575H86.7635C89.2385 26.575 90.4535 27.985 90.4535 29.68ZM99.6594 32.86C99.6594 35.455 97.7394 37.135 95.3694 37.135C93.0144 37.135 91.2294 35.455 91.2294 32.86C91.2294 30.265 93.0894 28.6 95.4444 28.6C97.7994 28.6 99.6594 30.265 99.6594 32.86ZM92.9694 32.86C92.9694 34.735 94.0794 35.65 95.3694 35.65C96.6444 35.65 97.9044 34.735 97.9044 32.86C97.9044 30.985 96.6894 30.085 95.4144 30.085C94.1244 30.085 92.9694 30.985 92.9694 32.86ZM107.215 34.69C107.215 36.085 106 37.135 104.05 37.135C102.07 37.135 100.675 35.965 100.6 34.465H102.37C102.43 35.14 103.075 35.695 104.02 35.695C105.01 35.695 105.535 35.275 105.535 34.705C105.535 33.085 100.735 34.015 100.735 30.985C100.735 29.665 101.965 28.6 103.915 28.6C105.79 28.6 107.02 29.605 107.11 31.255H105.4C105.34 30.535 104.785 30.04 103.855 30.04C102.94 30.04 102.46 30.415 102.46 30.97C102.46 32.635 107.125 31.705 107.215 34.69ZM108.762 37V28.735H110.472V37H108.762ZM109.632 27.64C109.017 27.64 108.537 27.16 108.537 26.545C108.537 25.93 109.017 25.45 109.632 25.45C110.232 25.45 110.712 25.93 110.712 26.545C110.712 27.16 110.232 27.64 109.632 27.64ZM112.688 34.705V30.13H111.713V28.735H112.688V26.68H114.413V28.735H116.423V30.13H114.413V34.705C114.413 35.32 114.653 35.575 115.373 35.575H116.423V37H115.073C113.603 37 112.688 36.385 112.688 34.705ZM117.699 37V28.735H119.409V37H117.699ZM118.569 27.64C117.954 27.64 117.474 27.16 117.474 26.545C117.474 25.93 117.954 25.45 118.569 25.45C119.169 25.45 119.649 25.93 119.649 26.545C119.649 27.16 119.169 27.64 118.569 27.64ZM129.229 32.86C129.229 35.455 127.309 37.135 124.939 37.135C122.584 37.135 120.799 35.455 120.799 32.86C120.799 30.265 122.659 28.6 125.014 28.6C127.369 28.6 129.229 30.265 129.229 32.86ZM122.539 32.86C122.539 34.735 123.649 35.65 124.939 35.65C126.214 35.65 127.474 34.735 127.474 32.86C127.474 30.985 126.259 30.085 124.984 30.085C123.694 30.085 122.539 30.985 122.539 32.86ZM136.484 37V32.38C136.484 30.865 135.659 30.085 134.414 30.085C133.154 30.085 132.329 30.865 132.329 32.38V37H130.619V28.735H132.329V29.68C132.884 29.005 133.799 28.6 134.789 28.6C136.724 28.6 138.179 29.815 138.179 32.125V37H136.484ZM24.53 50.575C27.875 50.575 30.065 52.6 30.065 55.825C30.065 59.035 27.875 61 24.53 61H21.125V50.575H24.53ZM22.835 59.605H24.53C26.99 59.605 28.31 58.195 28.31 55.825C28.31 53.44 26.99 51.97 24.53 51.97H22.835V59.605ZM31.4598 61V52.735H33.1698V61H31.4598ZM32.3298 51.64C31.7148 51.64 31.2348 51.16 31.2348 50.545C31.2348 49.93 31.7148 49.45 32.3298 49.45C32.9298 49.45 33.4098 49.93 33.4098 50.545C33.4098 51.16 32.9298 51.64 32.3298 51.64ZM41.2798 58.69C41.2798 60.085 40.0648 61.135 38.1148 61.135C36.1348 61.135 34.7398 59.965 34.6648 58.465H36.4348C36.4948 59.14 37.1398 59.695 38.0848 59.695C39.0748 59.695 39.5998 59.275 39.5998 58.705C39.5998 57.085 34.7998 58.015 34.7998 54.985C34.7998 53.665 36.0298 52.6 37.9798 52.6C39.8548 52.6 41.0848 53.605 41.1748 55.255H39.4648C39.4048 54.535 38.8498 54.04 37.9198 54.04C37.0048 54.04 36.5248 54.415 36.5248 54.97C36.5248 56.635 41.1898 55.705 41.2798 58.69ZM43.0975 58.705V54.13H42.1225V52.735H43.0975V50.68H44.8225V52.735H46.8325V54.13H44.8225V58.705C44.8225 59.32 45.0625 59.575 45.7825 59.575H46.8325V61H45.4825C44.0125 61 43.0975 60.385 43.0975 58.705ZM49.8186 56.65V61H48.1086V52.735H49.8186V53.935C50.2986 53.11 51.1236 52.6 52.2936 52.6V54.37H51.8586C50.5986 54.37 49.8186 54.895 49.8186 56.65ZM53.5654 61V52.735H55.2754V61H53.5654ZM54.4354 51.64C53.8204 51.64 53.3404 51.16 53.3404 50.545C53.3404 49.93 53.8204 49.45 54.4354 49.45C55.0354 49.45 55.5154 49.93 55.5154 50.545C55.5154 51.16 55.0354 51.64 54.4354 51.64ZM58.9305 53.965C59.4705 53.215 60.5055 52.6 61.8105 52.6C64.0005 52.6 65.6955 54.28 65.6955 56.83C65.6955 59.38 63.9855 61.135 61.8105 61.135C60.4455 61.135 59.4705 60.52 58.9305 59.8V61H57.2205V49.9H58.9305V53.965ZM63.9555 56.83C63.9555 55.045 62.7255 54.085 61.4355 54.085C60.1605 54.085 58.9305 55.09 58.9305 56.86C58.9305 58.645 60.1605 59.65 61.4355 59.65C62.7255 59.65 63.9555 58.615 63.9555 56.83ZM74.5715 52.735V61H72.8615V60.01C72.3215 60.715 71.3915 61.12 70.4165 61.12C68.4815 61.12 67.0115 59.905 67.0115 57.595V52.735H68.7065V57.34C68.7065 58.855 69.5315 59.635 70.7765 59.635C72.0365 59.635 72.8615 58.855 72.8615 57.34V52.735H74.5715ZM76.7977 58.705V54.13H75.8227V52.735H76.7977V50.68H78.5227V52.735H80.5327V54.13H78.5227V58.705C78.5227 59.32 78.7627 59.575 79.4827 59.575H80.5327V61H79.1827C77.7127 61 76.7977 60.385 76.7977 58.705ZM81.8088 61V52.735H83.5188V61H81.8088ZM82.6788 51.64C82.0638 51.64 81.5838 51.16 81.5838 50.545C81.5838 49.93 82.0638 49.45 82.6788 49.45C83.2788 49.45 83.7588 49.93 83.7588 50.545C83.7588 51.16 83.2788 51.64 82.6788 51.64ZM93.3389 56.86C93.3389 59.455 91.4189 61.135 89.0489 61.135C86.6939 61.135 84.9089 59.455 84.9089 56.86C84.9089 54.265 86.7689 52.6 89.1239 52.6C91.4789 52.6 93.3389 54.265 93.3389 56.86ZM86.6489 56.86C86.6489 58.735 87.7589 59.65 89.0489 59.65C90.3239 59.65 91.5839 58.735 91.5839 56.86C91.5839 54.985 90.3689 54.085 89.0939 54.085C87.8039 54.085 86.6489 54.985 86.6489 56.86ZM100.594 61V56.38C100.594 54.865 99.7693 54.085 98.5243 54.085C97.2643 54.085 96.4393 54.865 96.4393 56.38V61H94.7293V52.735H96.4393V53.68C96.9943 53.005 97.9093 52.6 98.8993 52.6C100.834 52.6 102.289 53.815 102.289 56.125V61H100.594Z" fill="#565353"/>
<path d="M25.23 152.56H21.72V154.84C21.8733 154.627 22.1 154.453 22.4 154.32C22.7 154.18 23.0233 154.11 23.37 154.11C23.9233 154.11 24.3733 154.227 24.72 154.46C25.0667 154.687 25.3133 154.983 25.46 155.35C25.6133 155.71 25.69 156.093 25.69 156.5C25.69 156.98 25.6 157.41 25.42 157.79C25.24 158.17 24.9633 158.47 24.59 158.69C24.2233 158.91 23.7667 159.02 23.22 159.02C22.52 159.02 21.9533 158.84 21.52 158.48C21.0867 158.12 20.8233 157.64 20.73 157.04H21.62C21.7067 157.42 21.89 157.717 22.17 157.93C22.45 158.143 22.8033 158.25 23.23 158.25C23.7567 158.25 24.1533 158.093 24.42 157.78C24.6867 157.46 24.82 157.04 24.82 156.52C24.82 156 24.6867 155.6 24.42 155.32C24.1533 155.033 23.76 154.89 23.24 154.89C22.8867 154.89 22.5767 154.977 22.31 155.15C22.05 155.317 21.86 155.547 21.74 155.84H20.88V151.76H25.23V152.56ZM26.8993 155.31C26.8993 154.163 27.086 153.27 27.4593 152.63C27.8326 151.983 28.486 151.66 29.4193 151.66C30.346 151.66 30.996 151.983 31.3693 152.63C31.7426 153.27 31.9293 154.163 31.9293 155.31C31.9293 156.477 31.7426 157.383 31.3693 158.03C30.996 158.677 30.346 159 29.4193 159C28.486 159 27.8326 158.677 27.4593 158.03C27.086 157.383 26.8993 156.477 26.8993 155.31ZM31.0293 155.31C31.0293 154.73 30.9893 154.24 30.9093 153.84C30.836 153.433 30.6793 153.107 30.4393 152.86C30.206 152.613 29.866 152.49 29.4193 152.49C28.966 152.49 28.6193 152.613 28.3793 152.86C28.146 153.107 27.9893 153.433 27.9093 153.84C27.836 154.24 27.7993 154.73 27.7993 155.31C27.7993 155.91 27.836 156.413 27.9093 156.82C27.9893 157.227 28.146 157.553 28.3793 157.8C28.6193 158.047 28.966 158.17 29.4193 158.17C29.866 158.17 30.206 158.047 30.4393 157.8C30.6793 157.553 30.836 157.227 30.9093 156.82C30.9893 156.413 31.0293 155.91 31.0293 155.31Z" fill="#565353"/>
<path d="M20.4 192.39V191.7L23.91 186.84H25V191.6H26V192.39H25V194H24.1V192.39H20.4ZM24.14 187.79L21.45 191.6H24.14V187.79ZM26.9091 190.31C26.9091 189.163 27.0957 188.27 27.4691 187.63C27.8424 186.983 28.4957 186.66 29.4291 186.66C30.3557 186.66 31.0057 186.983 31.3791 187.63C31.7524 188.27 31.9391 189.163 31.9391 190.31C31.9391 191.477 31.7524 192.383 31.3791 193.03C31.0057 193.677 30.3557 194 29.4291 194C28.4957 194 27.8424 193.677 27.4691 193.03C27.0957 192.383 26.9091 191.477 26.9091 190.31ZM31.0391 190.31C31.0391 189.73 30.9991 189.24 30.9191 188.84C30.8457 188.433 30.6891 188.107 30.4491 187.86C30.2157 187.613 29.8757 187.49 29.4291 187.49C28.9757 187.49 28.6291 187.613 28.3891 187.86C28.1557 188.107 27.9991 188.433 27.9191 188.84C27.8457 189.24 27.8091 189.73 27.8091 190.31C27.8091 190.91 27.8457 191.413 27.9191 191.82C27.9991 192.227 28.1557 192.553 28.3891 192.8C28.6291 193.047 28.9757 193.17 29.4291 193.17C29.8757 193.17 30.2157 193.047 30.4491 192.8C30.6891 192.553 30.8457 192.227 30.9191 191.82C30.9991 191.413 31.0391 190.91 31.0391 190.31Z" fill="#565353"/>
<path d="M20.6 223.59C20.6467 222.977 20.8833 222.497 21.31 222.15C21.7367 221.803 22.29 221.63 22.97 221.63C23.4233 221.63 23.8133 221.713 24.14 221.88C24.4733 222.04 24.7233 222.26 24.89 222.54C25.0633 222.82 25.15 223.137 25.15 223.49C25.15 223.903 25.03 224.26 24.79 224.56C24.5567 224.86 24.25 225.053 23.87 225.14V225.19C24.3033 225.297 24.6467 225.507 24.9 225.82C25.1533 226.133 25.28 226.543 25.28 227.05C25.28 227.43 25.1933 227.773 25.02 228.08C24.8467 228.38 24.5867 228.617 24.24 228.79C23.8933 228.963 23.4767 229.05 22.99 229.05C22.2833 229.05 21.7033 228.867 21.25 228.5C20.7967 228.127 20.5433 227.6 20.49 226.92H21.37C21.4167 227.32 21.58 227.647 21.86 227.9C22.14 228.153 22.5133 228.28 22.98 228.28C23.4467 228.28 23.8 228.16 24.04 227.92C24.2867 227.673 24.41 227.357 24.41 226.97C24.41 226.47 24.2433 226.11 23.91 225.89C23.5767 225.67 23.0733 225.56 22.4 225.56H22.17V224.8H22.41C23.0233 224.793 23.4867 224.693 23.8 224.5C24.1133 224.3 24.27 223.993 24.27 223.58C24.27 223.227 24.1533 222.943 23.92 222.73C23.6933 222.517 23.3667 222.41 22.94 222.41C22.5267 222.41 22.1933 222.517 21.94 222.73C21.6867 222.943 21.5367 223.23 21.49 223.59H20.6ZM26.5087 225.31C26.5087 224.163 26.6953 223.27 27.0687 222.63C27.442 221.983 28.0953 221.66 29.0287 221.66C29.9553 221.66 30.6053 221.983 30.9787 222.63C31.352 223.27 31.5387 224.163 31.5387 225.31C31.5387 226.477 31.352 227.383 30.9787 228.03C30.6053 228.677 29.9553 229 29.0287 229C28.0953 229 27.442 228.677 27.0687 228.03C26.6953 227.383 26.5087 226.477 26.5087 225.31ZM30.6387 225.31C30.6387 224.73 30.5987 224.24 30.5187 223.84C30.4453 223.433 30.2887 223.107 30.0487 222.86C29.8153 222.613 29.4753 222.49 29.0287 222.49C28.5753 222.49 28.2287 222.613 27.9887 222.86C27.7553 223.107 27.5987 223.433 27.5187 223.84C27.4453 224.24 27.4087 224.73 27.4087 225.31C27.4087 225.91 27.4453 226.413 27.5187 226.82C27.5987 227.227 27.7553 227.553 27.9887 227.8C28.2287 228.047 28.5753 228.17 29.0287 228.17C29.4753 228.17 29.8153 228.047 30.0487 227.8C30.2887 227.553 30.4453 227.227 30.5187 226.82C30.5987 226.413 30.6387 225.91 30.6387 225.31Z" fill="#565353"/>
<path d="M20.51 263.27C21.3567 262.59 22.02 262.033 22.5 261.6C22.98 261.16 23.3833 260.703 23.71 260.23C24.0433 259.75 24.21 259.28 24.21 258.82C24.21 258.387 24.1033 258.047 23.89 257.8C23.6833 257.547 23.3467 257.42 22.88 257.42C22.4267 257.42 22.0733 257.563 21.82 257.85C21.5733 258.13 21.44 258.507 21.42 258.98H20.54C20.5667 258.233 20.7933 257.657 21.22 257.25C21.6467 256.843 22.1967 256.64 22.87 256.64C23.5567 256.64 24.1 256.83 24.5 257.21C24.9067 257.59 25.11 258.113 25.11 258.78C25.11 259.333 24.9433 259.873 24.61 260.4C24.2833 260.92 23.91 261.38 23.49 261.78C23.07 262.173 22.5333 262.633 21.88 263.16H25.32V263.92H20.51V263.27ZM26.372 260.31C26.372 259.163 26.5586 258.27 26.932 257.63C27.3053 256.983 27.9586 256.66 28.892 256.66C29.8186 256.66 30.4686 256.983 30.842 257.63C31.2153 258.27 31.402 259.163 31.402 260.31C31.402 261.477 31.2153 262.383 30.842 263.03C30.4686 263.677 29.8186 264 28.892 264C27.9586 264 27.3053 263.677 26.932 263.03C26.5586 262.383 26.372 261.477 26.372 260.31ZM30.502 260.31C30.502 259.73 30.462 259.24 30.382 258.84C30.3086 258.433 30.152 258.107 29.912 257.86C29.6786 257.613 29.3386 257.49 28.892 257.49C28.4386 257.49 28.092 257.613 27.852 257.86C27.6186 258.107 27.462 258.433 27.382 258.84C27.3086 259.24 27.272 259.73 27.272 260.31C27.272 260.91 27.3086 261.413 27.382 261.82C27.462 262.227 27.6186 262.553 27.852 262.8C28.092 263.047 28.4386 263.17 28.892 263.17C29.3386 263.17 29.6786 263.047 29.912 262.8C30.152 262.553 30.3086 262.227 30.382 261.82C30.462 261.413 30.502 260.91 30.502 260.31Z" fill="#565353"/>
<path d="M20.38 292.6V291.77H22.26V299H21.34V292.6H20.38ZM23.8231 295.31C23.8231 294.163 24.0098 293.27 24.3831 292.63C24.7565 291.983 25.4098 291.66 26.3431 291.66C27.2698 291.66 27.9198 291.983 28.2931 292.63C28.6665 293.27 28.8531 294.163 28.8531 295.31C28.8531 296.477 28.6665 297.383 28.2931 298.03C27.9198 298.677 27.2698 299 26.3431 299C25.4098 299 24.7565 298.677 24.3831 298.03C24.0098 297.383 23.8231 296.477 23.8231 295.31ZM27.9531 295.31C27.9531 294.73 27.9131 294.24 27.8331 293.84C27.7598 293.433 27.6031 293.107 27.3631 292.86C27.1298 292.613 26.7898 292.49 26.3431 292.49C25.8898 292.49 25.5431 292.613 25.3031 292.86C25.0698 293.107 24.9131 293.433 24.8331 293.84C24.7598 294.24 24.7231 294.73 24.7231 295.31C24.7231 295.91 24.7598 296.413 24.8331 296.82C24.9131 297.227 25.0698 297.553 25.3031 297.8C25.5431 298.047 25.8898 298.17 26.3431 298.17C26.7898 298.17 27.1298 298.047 27.3631 297.8C27.6031 297.553 27.7598 297.227 27.8331 296.82C27.9131 296.413 27.9531 295.91 27.9531 295.31Z" fill="#565353"/>
<path d="M20.62 330.31C20.62 329.163 20.8067 328.27 21.18 327.63C21.5533 326.983 22.2067 326.66 23.14 326.66C24.0667 326.66 24.7167 326.983 25.09 327.63C25.4633 328.27 25.65 329.163 25.65 330.31C25.65 331.477 25.4633 332.383 25.09 333.03C24.7167 333.677 24.0667 334 23.14 334C22.2067 334 21.5533 333.677 21.18 333.03C20.8067 332.383 20.62 331.477 20.62 330.31ZM24.75 330.31C24.75 329.73 24.71 329.24 24.63 328.84C24.5567 328.433 24.4 328.107 24.16 327.86C23.9267 327.613 23.5867 327.49 23.14 327.49C22.6867 327.49 22.34 327.613 22.1 327.86C21.8667 328.107 21.71 328.433 21.63 328.84C21.5567 329.24 21.52 329.73 21.52 330.31C21.52 330.91 21.5567 331.413 21.63 331.82C21.71 332.227 21.8667 332.553 22.1 332.8C22.34 333.047 22.6867 333.17 23.14 333.17C23.5867 333.17 23.9267 333.047 24.16 332.8C24.4 332.553 24.5567 332.227 24.63 331.82C24.71 331.413 24.75 330.91 24.75 330.31Z" fill="#565353"/>
<path d="M54.6008 349.27C55.4475 348.59 56.1108 348.033 56.5908 347.6C57.0708 347.16 57.4742 346.703 57.8008 346.23C58.1342 345.75 58.3008 345.28 58.3008 344.82C58.3008 344.387 58.1942 344.047 57.9808 343.8C57.7742 343.547 57.4375 343.42 56.9708 343.42C56.5175 343.42 56.1642 343.563 55.9108 343.85C55.6642 344.13 55.5308 344.507 55.5108 344.98H54.6308C54.6575 344.233 54.8842 343.657 55.3108 343.25C55.7375 342.843 56.2875 342.64 56.9608 342.64C57.6475 342.64 58.1908 342.83 58.5908 343.21C58.9975 343.59 59.2008 344.113 59.2008 344.78C59.2008 345.333 59.0342 345.873 58.7008 346.4C58.3742 346.92 58.0008 347.38 57.5808 347.78C57.1608 348.173 56.6242 348.633 55.9708 349.16H59.4108V349.92H54.6008V349.27Z" fill="#565353"/>
<path d="M81.4908 348.39V347.7L85.0008 342.84H86.0908V347.6H87.0908V348.39H86.0908V350H85.1908V348.39H81.4908ZM85.2308 343.79L82.5408 347.6H85.2308V343.79Z" fill="#565353"/>
<path d="M112.741 344.49C112.594 343.75 112.137 343.38 111.371 343.38C110.777 343.38 110.334 343.61 110.041 344.07C109.747 344.523 109.604 345.273 109.611 346.32C109.764 345.973 110.017 345.703 110.371 345.51C110.731 345.31 111.131 345.21 111.571 345.21C112.257 345.21 112.804 345.423 113.211 345.85C113.624 346.277 113.831 346.867 113.831 347.62C113.831 348.073 113.741 348.48 113.561 348.84C113.387 349.2 113.121 349.487 112.761 349.7C112.407 349.913 111.977 350.02 111.471 350.02C110.784 350.02 110.247 349.867 109.861 349.56C109.474 349.253 109.204 348.83 109.051 348.29C108.897 347.75 108.821 347.083 108.821 346.29C108.821 343.843 109.674 342.62 111.381 342.62C112.034 342.62 112.547 342.797 112.921 343.15C113.294 343.503 113.514 343.95 113.581 344.49H112.741ZM111.381 345.98C111.094 345.98 110.824 346.04 110.571 346.16C110.317 346.273 110.111 346.45 109.951 346.69C109.797 346.923 109.721 347.21 109.721 347.55C109.721 348.057 109.867 348.47 110.161 348.79C110.454 349.103 110.874 349.26 111.421 349.26C111.887 349.26 112.257 349.117 112.531 348.83C112.811 348.537 112.951 348.143 112.951 347.65C112.951 347.13 112.817 346.723 112.551 346.43C112.284 346.13 111.894 345.98 111.381 345.98Z" fill="#565353"/>
<path d="M137.031 346.24C136.657 346.093 136.371 345.88 136.171 345.6C135.971 345.32 135.871 344.98 135.871 344.58C135.871 344.22 135.961 343.897 136.141 343.61C136.321 343.317 136.587 343.087 136.941 342.92C137.301 342.747 137.734 342.66 138.241 342.66C138.747 342.66 139.177 342.747 139.531 342.92C139.891 343.087 140.161 343.317 140.341 343.61C140.527 343.897 140.621 344.22 140.621 344.58C140.621 344.967 140.517 345.307 140.311 345.6C140.104 345.887 139.821 346.1 139.461 346.24C139.874 346.367 140.201 346.59 140.441 346.91C140.687 347.223 140.811 347.603 140.811 348.05C140.811 348.483 140.704 348.863 140.491 349.19C140.277 349.51 139.974 349.76 139.581 349.94C139.194 350.113 138.747 350.2 138.241 350.2C137.734 350.2 137.287 350.113 136.901 349.94C136.521 349.76 136.224 349.51 136.011 349.19C135.797 348.863 135.691 348.483 135.691 348.05C135.691 347.603 135.811 347.22 136.051 346.9C136.291 346.58 136.617 346.36 137.031 346.24ZM139.741 344.69C139.741 344.283 139.607 343.97 139.341 343.75C139.074 343.53 138.707 343.42 138.241 343.42C137.781 343.42 137.417 343.53 137.151 343.75C136.884 343.97 136.751 344.287 136.751 344.7C136.751 345.073 136.887 345.373 137.161 345.6C137.441 345.827 137.801 345.94 138.241 345.94C138.687 345.94 139.047 345.827 139.321 345.6C139.601 345.367 139.741 345.063 139.741 344.69ZM138.241 346.64C137.747 346.64 137.344 346.757 137.031 346.99C136.717 347.217 136.561 347.56 136.561 348.02C136.561 348.447 136.711 348.79 137.011 349.05C137.317 349.31 137.727 349.44 138.241 349.44C138.754 349.44 139.161 349.31 139.461 349.05C139.761 348.79 139.911 348.447 139.911 348.02C139.911 347.573 139.757 347.233 139.451 347C139.144 346.76 138.741 346.64 138.241 346.64Z" fill="#565353"/>
<path d="M162.471 343.6V342.77H164.351V350H163.431V343.6H162.471ZM165.914 346.31C165.914 345.163 166.101 344.27 166.474 343.63C166.847 342.983 167.501 342.66 168.434 342.66C169.361 342.66 170.011 342.983 170.384 343.63C170.757 344.27 170.944 345.163 170.944 346.31C170.944 347.477 170.757 348.383 170.384 349.03C170.011 349.677 169.361 350 168.434 350C167.501 350 166.847 349.677 166.474 349.03C166.101 348.383 165.914 347.477 165.914 346.31ZM170.044 346.31C170.044 345.73 170.004 345.24 169.924 344.84C169.851 344.433 169.694 344.107 169.454 343.86C169.221 343.613 168.881 343.49 168.434 343.49C167.981 343.49 167.634 343.613 167.394 343.86C167.161 344.107 167.004 344.433 166.924 344.84C166.851 345.24 166.814 345.73 166.814 346.31C166.814 346.91 166.851 347.413 166.924 347.82C167.004 348.227 167.161 348.553 167.394 348.8C167.634 349.047 167.981 349.17 168.434 349.17C168.881 349.17 169.221 349.047 169.454 348.8C169.694 348.553 169.851 348.227 169.924 347.82C170.004 347.413 170.044 346.91 170.044 346.31Z" fill="#565353"/>
<path d="M189.471 343.6V342.77H191.351V350H190.431V343.6H189.471ZM192.804 349.27C193.651 348.59 194.314 348.033 194.794 347.6C195.274 347.16 195.677 346.703 196.004 346.23C196.337 345.75 196.504 345.28 196.504 344.82C196.504 344.387 196.397 344.047 196.184 343.8C195.977 343.547 195.641 343.42 195.174 343.42C194.721 343.42 194.367 343.563 194.114 343.85C193.867 344.13 193.734 344.507 193.714 344.98H192.834C192.861 344.233 193.087 343.657 193.514 343.25C193.941 342.843 194.491 342.64 195.164 342.64C195.851 342.64 196.394 342.83 196.794 343.21C197.201 343.59 197.404 344.113 197.404 344.78C197.404 345.333 197.237 345.873 196.904 346.4C196.577 346.92 196.204 347.38 195.784 347.78C195.364 348.173 194.827 348.633 194.174 349.16H197.614V349.92H192.804V349.27Z" fill="#565353"/>
<path d="M42 333L42 140" stroke="#DADADA"/>
<path d="M41.3638 333H203" stroke="#DADADA"/>
<path d="M51.0566 234.802L68.5288 244.302C69.6743 244.925 71.0998 244.303 71.4221 243.04L81.9377 201.831C81.9887 201.631 82.0704 201.44 82.1797 201.265L94.6112 181.379C95.4123 180.097 97.2906 180.133 98.0422 181.444L118.62 217.341C119.408 218.717 121.408 218.672 122.133 217.262L133.537 195.106C133.954 194.296 134.867 193.87 135.756 194.07L152.122 197.763C152.871 197.932 153.65 197.658 154.128 197.056L167.412 180.335C168.079 179.495 169.291 179.331 170.158 179.965L187.845 192.888L208.468 207.39" stroke="#E65252" stroke-width="3" stroke-linejoin="round"/>
<path d="M48.5304 196.732L64.6379 188.16C65.2636 187.827 66.0189 187.85 66.6232 188.22L86.6639 200.512C86.8463 200.623 87.0455 200.705 87.2538 200.754L105.142 204.94C105.959 205.131 106.808 204.792 107.269 204.091L119.897 184.878C120.385 184.134 121.306 183.803 122.156 184.065L139.953 189.544C140.372 189.673 140.821 189.661 141.232 189.509L158.089 183.312C158.405 183.195 158.746 183.161 159.079 183.211L177.404 185.99C177.885 186.062 178.376 185.958 178.785 185.695L194.012 175.91L211.147 165.19" stroke="#80AFE3" stroke-width="3" stroke-linejoin="round"/>
</svg>
